<?xml version="1.0" encoding="utf-8"?>
<!-- Generator: Adobe Illustrator 16.0.0, SVG Export Plug-In . SVG Version: 6.00 Build 0)  -->
<!DOCTYPE svg PUBLIC "-//W3C//DTD SVG 1.1//EN" "http://www.w3.org/Graphics/SVG/1.1/DTD/svg11.dtd">
<svg version="1.1" xmlns="http://www.w3.org/2000/svg" xmlns:xlink="http://www.w3.org/1999/xlink" x="0px" y="0px" width="500px"
	 height="500px" viewBox="0 0 500 500" enable-background="new 0 0 500 500" xml:space="preserve">
<g id="Layer_2">
	<ellipse fill="#A3621C" cx="247.836" cy="487" rx="142.878" ry="13"/>
</g>
<g id="Layer_1">
	<path fill-rule="evenodd" clip-rule="evenodd" fill="#528224" d="M124.651,206.291c-18.041-3.521-36.687-4.186-53.905-11.544
		c2.004-2.464,4.454-2.009,7.194-1.475c12.449,2.424,24.884,4.966,37.422,6.827c6.965,1.036,15.647,1.228,18.771-5.692
		c2.825-6.267-6.158-8.34-9.511-12.593c5.086-0.752,9.548,0.994,14.181,2.914c10.721,4.451,21.749,7.747,33.595,7.761
		c9.751,0.017,19.72-0.092,23.099-11.393c3.542-11.837,1.406-23.03-8.4-31.663c-3.953-3.477-9.562-5.116-11.658-10.627
		c4.861-0.958,8.166,2.087,12,4.27c16.438,9.362,27.043,7.343,38.899-6.959c1.305,7.319-0.467,14.682-3.258,20.847
		c-7.483,16.507,4.851,36.168,22.053,42.821c13.19,5.103,39.083-10.324,43.79-25.33c9.529-30.367,7.836-61.259,2.936-92.032
		c-2.083-13.092-6.008-13.501-16.25-5.078c-20.103,16.53-35.622,36.753-49.196,58.674c2.015-12.947-2.31-22.2-14.838-27.631
		c-4.864-2.107-8.217-6.681-10.381-11.755c-6.127-38.285,12.69-65.973,38.564-90.636c1.584-1.513,3.612-3.431,5.852-2.088
		c3.517,2.104,1.81,5.559,1.087,8.401c-5.725,22.575-6.316,45.019,1.431,67.288c0.99,2.847,2.33,5.578,4.977,11.836
		c2.088-15.619,3.725-27.687,5.301-39.762c0.405-3.098,0.089-6.395,1.043-9.292c1.703-5.181-0.253-13.334,6.982-14.458
		c5.795-0.902,8.277,5.81,11.219,10.141c10.651,15.688,17.479,33.031,21.779,52.425c10.625-11.193,15.185-23.823,15.409-38.108
		c0.202-13.159,0.044-26.323,0.044-40.534c7.684,3.43,10.483,9.597,13.538,15.277c11.14,20.691,14.133,43,12.944,66.173
		c-0.271,5.253-1.87,10.621,0.275,15.859c0.003-0.003,0.22-0.022,0.22-0.022l-0.532,0.373c-0.685,0.774-1.375,1.545-2.06,2.316
		c-12.736,19.131-25.267,38.408-38.31,57.329c-5.76,8.36-7.334,16.235-0.303,24.267c7.442,8.494,15.522,4.125,22.811-0.065
		c10.776-6.188,21.105-13.169,31.618-19.813l0.192,0.177c-0.253,2.258-0.07,4.307,2.518,5.189l0.176,0.183
		c-4.533,13.465-3.004,15.508,10.774,16.129c12.162,0.552,23.816-1.355,35.294-5.271c9.08-3.099,15.855-11.979,26.683-10.612
		c-11.797,11.892-27.017,18-41.821,24.778c-6.348,2.984-13.138,1.734-19.738,1.75C287.656,206.076,206.152,206.168,124.651,206.291z
		"/>
	<path fill-rule="evenodd" clip-rule="evenodd" fill="#649E30" d="M355.085,173.538c-10.513,6.645-20.842,13.625-31.618,19.813
		c-7.288,4.189-15.368,8.559-22.811,0.065c-7.031-8.031-5.457-15.907,0.303-24.267c13.043-18.92,25.573-38.198,38.308-57.329
		c0.686-0.768,1.375-1.542,2.066-2.316c-0.005,0,0.527-0.373,0.529-0.376c0.827-0.438,1.655-0.869,2.483-1.303
		c17.66-22.296,37.376-42.462,61.556-58.869c-8.869,43.664-21.259,85.676-46.199,124.798c11.15-0.696,19.644-6.227,28.095-10.737
		c17.547-9.363,35.768-13.369,55.379-9.836c3.653,0.656,8.937-0.14,10.288,4.303c1.165,3.828-3.239,5.926-5.728,8.274
		c-4.169,3.924-7.783,8.598-13.395,10.741c-1.332,0.941-2.655,1.882-3.98,2.82c0,0,0.36,0.018,0.36,0.014
		c-10.827-1.367-17.603,7.514-26.683,10.612c-11.478,3.917-23.132,5.823-35.294,5.271c-13.778-0.621-15.308-2.664-10.774-16.125
		c0.194-0.368,0.384-0.738,0.579-1.109c-0.25,0.307-0.505,0.614-0.755,0.922c-2.588-0.883-2.771-2.932-2.52-5.187
		c0.32-0.431,0.64-0.859,0.962-1.288C355.852,172.797,355.47,173.167,355.085,173.538z"/>
	<path fill-rule="evenodd" clip-rule="evenodd" fill="#649E30" d="M175.44,138.806c2.096,5.511,7.705,7.15,11.658,10.627
		c9.807,8.633,11.943,19.826,8.4,31.663c-3.379,11.301-13.347,11.41-23.099,11.393c-11.846-0.014-22.875-3.31-33.595-7.761
		c-4.633-1.92-9.094-3.667-14.181-2.914l-0.433-0.265c-0.916-2.374-3.003-2.507-5.079-2.671
		c-36.465-18.424-53.447-51.529-65.968-87.884c-1.693-4.906-4.483-11.503-0.042-15.071c3.841-3.085,9.036,1.778,13.29,3.771
		c26.604,12.46,52.165,26.902,77.678,41.43c3.823,2.177,7.259,5.28,12.038,5.327c4.897,6.464,11.84,9.712,19.234,12.257
		L175.44,138.806z"/>
	<path fill-rule="evenodd" clip-rule="evenodd" fill="#649E30" d="M201.195,96.633c2.164,5.074,5.517,9.648,10.381,11.755
		c12.528,5.431,16.853,14.684,14.838,27.631l-0.074,0.097c-11.855,14.303-22.46,16.321-38.899,6.959
		c-3.834-2.183-7.139-5.227-12-4.27l-0.1-0.098c-7.246-9.79-14.493-19.583-21.736-29.375c-5.975-27.974-0.133-53.903,13.808-78.32
		c2.139-3.743,4.645-9.305,9.397-8.442c5.767,1.046,3.367,7.332,3.77,11.363c1.548,15.558,2.886,31.167,8.585,45.878
		C191.685,86.308,193.663,93.56,201.195,96.633z"/>
	<path fill-rule="evenodd" clip-rule="evenodd" fill="#649E30" d="M124.624,181.814c3.353,4.253,12.336,6.326,9.511,12.593
		c-3.124,6.92-11.806,6.728-18.771,5.692c-12.538-1.861-24.973-4.403-37.422-6.827c-2.74-0.535-5.189-0.99-7.194,1.475
		c-9.517-1.648-17.125-7.07-24.551-12.697c-2.676-2.03-6.348-4.443-4.126-8.621c1.746-3.281,5.55-2.664,8.479-2.11
		c20.091,3.802,40.11,7.983,60.224,11.647c3.556,0.646,8.131,5.52,11.158-1.119c0.738-0.196,1.493-0.293,2.261-0.299
		L124.624,181.814z"/>
	<path fill-rule="evenodd" clip-rule="evenodd" fill="#528224" d="M153.604,109.333c7.243,9.793,14.491,19.586,21.736,29.375
		c-7.394-2.544-14.337-5.792-19.234-12.257C155.273,120.745,154.438,115.036,153.604,109.333z"/>
	<path fill-rule="evenodd" clip-rule="evenodd" fill="#528224" d="M124.19,181.549c-0.768,0.005-1.522,0.103-2.261,0.299
		c-1.758-0.21-3.292-0.635-2.818-2.97C121.187,179.042,123.274,179.175,124.19,181.549z"/>
	<path fill-rule="evenodd" clip-rule="evenodd" fill="#7DA32F" d="M344.346,107.826c-0.828,0.435-1.656,0.866-2.483,1.303
		c-0.002,0.003-0.219,0.022-0.222,0.025C342.541,108.715,343.443,108.271,344.346,107.826z"/>
	<path fill-rule="evenodd" clip-rule="evenodd" fill="#649E30" d="M226.414,136.019c13.574-21.921,29.093-42.144,49.196-58.674
		c10.242-8.423,14.167-8.014,16.25,5.078c4.9,30.773,6.594,61.665-2.936,92.032c-4.707,15.006-30.6,30.433-43.79,25.33
		c-17.202-6.652-29.536-26.313-22.053-42.821c2.791-6.166,4.563-13.528,3.258-20.847L226.414,136.019z"/>
	<path fill-rule="evenodd" clip-rule="evenodd" fill="#7DA32F" d="M341.333,109.505c-0.691,0.774-1.381,1.548-2.066,2.316
		C339.953,111.05,340.644,110.279,341.333,109.505z"/>
	<path fill-rule="evenodd" clip-rule="evenodd" fill="#528224" d="M310.099,333.214c0.319-0.308,0.639-0.615,0.958-0.921
		c-0.269,0.356-0.533,0.713-0.802,1.072C310.26,333.362,310.099,333.214,310.099,333.214z"/>
	<path fill-rule="evenodd" clip-rule="evenodd" fill="#528224" d="M312.352,337.676c0.209-0.257,0.417-0.512,0.625-0.766
		c-0.157,0.307-0.318,0.615-0.481,0.921C312.495,337.828,312.352,337.676,312.352,337.676z"/>
	<path fill="#603813" d="M107.115,240.42c0-27.361,21.22-36.42,21.22-36.42H315v78H127.086
		C127.086,282,107.115,272.938,107.115,240.42z"/>
	<path fill="#A67C52" d="M392.391,245.581c0,27.357-21.221,36.419-21.221,36.419H308v-78h64.414
		C372.414,204,392.391,213.059,392.391,245.581z"/>
	<polyline fill="#754C24" points="130,282 311.324,282 299.657,450 152.88,450 130.743,279.122 	"/>
	<polyline fill="#8C6239" points="367,282 307.641,282 299.657,450 348.168,450 367,279.122 	"/>
	<polygon fill="#603813" points="134.456,450 298,450 298,488 141.826,488 	"/>
	<polygon fill="#42210B" points="362.913,450 298,450 298,488 355.543,488 	"/>
</g>
<g id="Layer_7" display="none">
	<g display="inline">
		<g>
			<path fill="#39B54A" d="M201.193,354.729c0,0-52.885-93.795-67.914-126.394c-7.83-16.981-20.167-51.857-24.705-70.63
				c-3.039-12.55-9.647-41.052-7.619-53.673c2.916-18.155,6.211-33.229,22.499-39.861c20.491-8.341,37.943,3.109,46.233,10.991
				c14.327,13.605,23.795,28.741,32.217,48.173c11.432,26.369,25.051,67.791,36.945,106.78
				c16.186,53.035,22.136,105.071,22.136,105.071L201.193,354.729z"/>
			<path fill="#009245" d="M125.696,63.817c0,0,15.268,23.68,19.701,31.965c11.979,22.375,31.086,68.775,39.652,92.417
				c14.093,38.883,51.892,157.082,51.892,157.082l7.378-2.545c0,0-36.8-122.678-51.542-162.725
				c-8.579-23.313-29.089-69.05-42.639-89.702C145.167,82.741,125.696,63.817,125.696,63.817z"/>
			<path fill="#009245" d="M122.856,64.795c0,0,5.927,29.783,7.544,39.042c4.367,24.999,22.925,71.541,33.135,94.663
				c16.699,37.822,67.404,148.853,67.404,148.853l-7.38,2.546c0,0-54.5-113.801-71.156-153.08
				c-9.504-22.407-27.05-69.754-29.11-94.373C122.539,93.426,122.856,64.795,122.856,64.795z"/>
			<path fill="#009245" d="M117.769,67.152c0,0-6.574,30.734-6.292,40.119c0.773,25.291,20.598,78.319,30.806,101.441
				c16.699,37.823,74.781,146.305,74.781,146.305l-7.376,2.542c0,0-60.397-111.282-77.053-150.56
				c-9.506-22.407-26.988-78.724-27.718-99.804C104.574,97.306,117.769,67.152,117.769,67.152z"/>
			<path fill="#009245" d="M138.37,61.267c0,0,24.124,24.686,29.685,32.249c14.986,20.388,34.331,64.94,40.545,89.442
				c10.167,40.072,41.16,157.902,41.16,157.902l7.381-2.543c0,0-30.9-121.463-41.998-162.658c-6.332-23.5-29.547-69.2-41.967-86.246
				C167.35,81.412,138.37,61.267,138.37,61.267z"/>
		</g>
		<g>
			<path fill="#39B54A" d="M269.708,318.055c0,0,10.355-102.14,16.102-136.012c2.985-17.643,11.521-52.065,17.457-69.575
				c3.964-11.708,13.156-38.15,20.395-47.458c10.408-13.385,19.602-24.075,33.13-21.576c17.02,3.144,22.778,20.948,24.362,31.396
				c2.754,18.045,1.677,34.981-2.087,54.912c-5.106,27.043-15.904,67.422-26.654,104.983c-14.622,51.093-35.31,96.409-35.31,96.409
				L269.708,318.055z"/>
			<path fill="#009245" d="M358.392,44.229c0,0-1.388,26.718-2.461,35.625c-2.88,24.051-12.474,71.036-18.129,94.471
				c-9.299,38.541-40.753,153.132-40.753,153.132l5.911,1.506c0,0,34.198-117.758,43.634-157.562
				c5.488-23.175,13.896-70.353,14.963-93.77C361.942,69.05,358.392,44.229,358.392,44.229z"/>
			<path fill="#009245" d="M356.117,43.651c0,0-10.232,27.159-13.553,35.491c-8.979,22.5-18.999,69.333-23.356,93.141
				c-7.132,38.94-26.967,153.949-26.967,153.949l-5.914-1.506c0,0,18.72-119.109,26.562-159.217
				c4.474-22.878,15.535-69.936,25.802-91.009C342.457,66.78,356.117,43.651,356.117,43.651z"/>
			<path fill="#009245" d="M351.754,43.105c0,0-18.66,21.865-22.898,29.655c-11.411,20.992-23.702,73.846-28.062,97.652
				c-7.134,38.939-21.085,155.574-21.085,155.574l-5.911-1.504c0,0,13.793-120.04,21.634-160.148
				c4.475-22.88,19.816-77.28,29.271-94.821C329.138,61.282,351.754,43.105,351.754,43.105z"/>
			<path fill="#009245" d="M367.688,48.302c0,0,3.793,31.835,3.788,40.699c-0.021,23.895-8.604,69.486-16.167,92.476
				c-12.364,37.609-47.987,148.596-47.987,148.596l5.913,1.507c0,0,37.396-113.902,49.694-152.875
				c7.016-22.232,13.676-70.698,13.763-90.625C376.74,78.732,367.688,48.302,367.688,48.302z"/>
		</g>
		<path opacity="0.5" fill="#103311" d="M210.831,341.324c0,0-21.873-111.105-26.431-148.575
			c-2.372-19.516-5.596-58.322-3.271-78.492c1.556-13.486,3.877-21.551,3.877-21.551l42.171,42.959l63.197,11.427l12.892-34.625
			c0,0,3.688,75.426,1.82,118.159c-2.545,58.129-14.133,111.771-14.133,111.771L210.831,341.324z"/>
		<g>
			<path fill="#39B54A" d="M214.56,318.475c0,0-21.305-111.106-25.23-148.576c-2.045-19.518-2.363-58.322-0.356-78.493
				c1.337-13.485,4.682-44.009,11.304-55.833c9.525-17.006,18.334-30.826,37.611-31.83c24.247-1.264,38.251,16.061,44.036,26.711
				c9.994,18.395,14.401,36.643,16.187,58.794c2.421,30.056,1.726,75.792,0.116,118.526c-2.189,58.131-14.637,111.77-14.637,111.77
				L214.56,318.475z"/>
			<path fill="#009245" d="M240.337,4.157c0,0,7.371,28.705,9.006,38.44c4.416,26.283,7.638,79.167,8.066,105.543
				C258.115,191.521,255.03,322,255.03,322h8.566c0,0,5.723-134.578,4.761-179.335c-0.562-26.058-5.467-78.591-12.14-103.71
				C253.771,29.751,240.337,4.157,240.337,4.157z"/>
			<path fill="#009245" d="M237.046,4.157c0,0-4.514,31.563-6.148,41.297c-4.415,26.283-1.817,79.12,0.503,105.544
				C235.191,194.215,248.063,322,248.063,322h-8.566c0,0-15.817-131.828-19.045-176.477c-1.84-25.471-3.102-78.593,3.571-103.711
				C226.47,32.608,237.046,4.157,237.046,4.157z"/>
			<path fill="#009245" d="M230.923,4.754c0,0-17.822,28.23-20.884,37.634c-8.253,25.341-6.664,85.617-4.346,112.037
				C209.483,197.645,230.923,326,230.923,326h-8.566c0,0-22.836-131.925-26.064-176.574c-1.84-25.471,0.179-87.751,6.963-108.906
				C206.438,30.597,230.923,4.754,230.923,4.754z"/>
			<path fill="#009245" d="M254.403,5.962c0,0,16.193,32.735,19.258,42.138c8.252,25.342,12.377,76.474,10.059,102.897
				C279.93,194.215,269.914,322,269.914,322h8.566c0,0,11.412-131.352,14.641-176.002c1.84-25.469-5.892-78.895-12.676-100.05
				C277.263,36.021,254.403,5.962,254.403,5.962z"/>
		</g>
		<path fill="#754C24" d="M352.858,396.313c0,48.704-46.358,88.188-103.545,88.188c-57.185,0-103.543-39.483-103.543-88.188
			c0-48.708,46.358-88.192,103.543-88.192C306.5,308.12,352.858,347.604,352.858,396.313z"/>
		<path fill="#603813" d="M352.858,396.313c0,48.704-46.358,88.188-103.545,88.188c-57.185,0,44.987-34.84,44.987-83.547
			c0-48.706-102.172-92.833-44.987-92.833C306.5,308.12,352.858,347.604,352.858,396.313z"/>
		<path fill="#A67C52" d="M152.28,312.047c0-15.422,14.267-20.047,14.267-20.047H293v43H165.703
			C165.703,335,152.28,330.371,152.28,312.047z"/>
		<path fill="#754C24" d="M344.031,314.953c0,15.418-14.264,20.047-14.264,20.047H288v-43h42.605
			C330.605,292,344.031,296.625,344.031,314.953z"/>
		<polygon fill="#8C6239" points="200.755,477 274,477 274,490 203.979,490 		"/>
		<polygon fill="#42210B" points="300.652,477 274,477 274,490 297.428,490 		"/>
	</g>
</g>
<g id="Layer_3">
	<g>
		<path fill="#E34F26" d="M259.425,258.667l-2.589-31.636l30.914,0.063l-2.737,31.573l-12.603,3.649L259.425,258.667z"/>
		<path fill="#EF652A" d="M272.41,259.262v-29.217l12.73,0.042l-2.271,26.14L272.41,259.262z"/>
		<path fill="#FFFFFF" d="M281.64,237.343l0.36-3.862h-19.584l1.082,11.84h13.516l-0.529,5.049l-4.328,1.167l-4.393-1.272
			l-0.233-3.013h-3.884l0.53,6.154l7.979,2.228l8.041-2.228l1.083-12.01h-14.195l-0.402-4.053H281.64z"/>
	</g>
</g>
<g id="Layer_4">
	
		<image overflow="visible" width="1200" height="1200" xlink:href="../Lanuage Logos/css.png"  transform="matrix(0.0296 0 0 0.0296 201.0522 226.0308)">
	</image>
</g>
<g id="Layer_5">
	
		<image overflow="visible" width="1280" height="960" xlink:href="../Lanuage Logos/sass.png"  transform="matrix(0.0418 0 0 0.0418 130 222.9575)">
	</image>
</g>
<g id="Layer_6">
	<rect x="134.676" y="307.997" fill="none" width="164.981" height="101"/>
	<text transform="matrix(1 0 0 1 151.499 330.1934)"><tspan x="0" y="0" fill="#F2F2F2" font-family="'Arial-BoldMT'" font-size="31">Advanced </tspan><tspan x="53.417" y="28" fill="#F2F2F2" font-family="'Arial-BoldMT'" font-size="31">CSS &amp; </tspan><tspan x="75.759" y="56" fill="#F2F2F2" font-family="'Arial-BoldMT'" font-size="31">Sass</tspan></text>
</g>
</svg>
