<?xml version="1.0" encoding="utf-8"?>
<!-- Generator: Adobe Illustrator 16.0.0, SVG Export Plug-In . SVG Version: 6.00 Build 0)  -->
<!DOCTYPE svg PUBLIC "-//W3C//DTD SVG 1.1//EN" "http://www.w3.org/Graphics/SVG/1.1/DTD/svg11.dtd">
<svg version="1.1" xmlns="http://www.w3.org/2000/svg" xmlns:xlink="http://www.w3.org/1999/xlink" x="0px" y="0px" width="500px"
	 height="500px" viewBox="0 0 500 500" enable-background="new 0 0 500 500" xml:space="preserve">
<g id="Layer_2">
	<ellipse fill="#A3621C" cx="247.836" cy="487" rx="142.878" ry="13"/>
</g>
<g id="Layer_1" display="none">
	<g display="inline">
		<path fill="#009245" d="M182.753,172.761c0,0-9.848,0.974-12.931,0c-2.68-0.847-7.836-4.012-9.21-6.464
			c-5.29-9.428,3.479-34.314-2.748-43.15c-1.47-2.086-6.844-4.377-9.373-4.041c-5.273,0.704-14.45,8.408-16.647,13.253
			c-3.539,7.81-1.571,26.301,1.615,34.261c3.38,8.441,15.931,22.984,23.84,27.474c4.8,2.726,21.737,3.879,21.737,3.879l13.574-1.131
			L182.753,172.761z"/>
		<path fill="#009245" d="M281.012,237.405c0,0,18.049,2.563,23.271,0c3.242-1.591,7.913-7.932,8.834-11.42
			c2.142-8.103-3.445-24.905-4.739-33.184c-1.076-6.896-1.076-21.118,14.653-21.118c18.315,0,22.189,16.695,23.487,25.212
			c1.673,10.973,3.366,33.534,0.862,44.388c-1.48,6.418-3.017,16.377-13.143,22.843c-5.724,3.651-20.154,3.183-26.937,3.446
			c-4.587,0.18-17.669-0.86-18.315-1.292C288.34,265.848,281.012,237.405,281.012,237.405z"/>
		<path fill="#39B54A" d="M185.34,170.175c0,0-9.849,0.973-12.931,0c-2.683-0.848-7.837-4.012-9.213-6.464
			c-5.288-9.427,3.478-34.314-2.745-43.15c-1.471-2.087-6.844-4.377-9.375-4.04c-5.271,0.702-14.448,8.406-16.645,13.251
			c-3.542,7.811-1.574,26.301,1.615,34.262c3.38,8.44,15.931,22.984,23.84,27.474c4.8,2.726,21.735,3.878,21.735,3.878l13.574-1.131
			L185.34,170.175z"/>
		<path fill="#39B54A" d="M278.428,232.234c0,0,18.049,2.564,23.271,0c3.24-1.59,7.91-7.93,8.834-11.419
			c2.14-8.104-3.445-24.905-4.741-33.185c-1.076-6.896-1.076-21.117,14.655-21.117c18.313,0,22.188,16.695,23.487,25.211
			c1.67,10.973,3.363,33.534,0.857,44.389c-1.478,6.417-3.013,16.377-13.141,22.842c-5.721,3.652-20.155,3.182-26.936,3.447
			c-4.587,0.181-17.67-0.86-18.316-1.293C285.751,260.678,278.428,232.234,278.428,232.234z"/>
		<path fill="#39B54A" d="M212.813,319.182c0,0-13.63-50.002-18.188-75.123c-5.678-31.293-11.873-58.369-14.459-89.438
			c-1.474-17.703-3.679-52.945-3.016-71.284c0.646-17.885,3.054-41.227,9.051-51.932c8.621-15.394,20.472-26.289,37.922-27.199
			c21.95-1.144,36.567,11.31,41.805,20.95c9.047,16.651,11.1,36.403,12.715,56.456c2.191,27.209,1.56,68.612,0.104,107.298
			c-0.62,16.431,4.995,37.81,7.759,48.82c5.654,22.508,27.474,83.713,27.474,83.713L212.813,319.182z"/>
		<line fill="none" stroke="#8CC63F" stroke-width="3" stroke-miterlimit="10" x1="225.635" y1="32.699" x2="225.419" y2="49.936"/>
		<line fill="none" stroke="#8CC63F" stroke-width="3" stroke-miterlimit="10" x1="204.516" y1="15.891" x2="194.174" y2="30.974"/>
		<line fill="none" stroke="#8CC63F" stroke-width="3" stroke-miterlimit="10" x1="249.554" y1="14.812" x2="253.646" y2="26.448"/>
		<line fill="none" stroke="#8CC63F" stroke-width="3" stroke-miterlimit="10" x1="255.801" y1="64.589" x2="256.018" y2="80.535"/>
		<line fill="none" stroke="#8CC63F" stroke-width="3" stroke-miterlimit="10" x1="200.5" y1="62" x2="200.5" y2="77"/>
		<line fill="none" stroke="#8CC63F" stroke-width="3" stroke-miterlimit="10" x1="229.943" y1="90.446" x2="230.59" y2="107.04"/>
		
			<line fill="none" stroke="#8CC63F" stroke-width="3" stroke-miterlimit="10" x1="188.786" y1="114.995" x2="189.216" y2="129.647"/>
		
			<line fill="none" stroke="#8CC63F" stroke-width="3" stroke-miterlimit="10" x1="212.489" y1="140.637" x2="212.275" y2="154.428"/>
		
			<line fill="none" stroke="#8CC63F" stroke-width="3" stroke-miterlimit="10" x1="246.751" y1="147.532" x2="247.397" y2="161.324"/>
		
			<line fill="none" stroke="#8CC63F" stroke-width="3" stroke-miterlimit="10" x1="263.99" y1="120.813" x2="264.637" y2="138.913"/>
		
			<line fill="none" stroke="#8CC63F" stroke-width="3" stroke-miterlimit="10" x1="199.776" y1="178.108" x2="203.008" y2="195.387"/>
		
			<line fill="none" stroke="#8CC63F" stroke-width="3" stroke-miterlimit="10" x1="234.683" y1="190.606" x2="235.977" y2="208.707"/>
		
			<line fill="none" stroke="#8CC63F" stroke-width="3" stroke-miterlimit="10" x1="272.608" y1="181.772" x2="273.041" y2="201.595"/>
		<line fill="none" stroke="#8CC63F" stroke-width="3" stroke-miterlimit="10" x1="263.99" y1="225.297" x2="264.637" y2="245.34"/>
		<line fill="none" stroke="#8CC63F" stroke-width="3" stroke-miterlimit="10" x1="237.7" y1="248.141" x2="241.578" y2="265.809"/>
		
			<line fill="none" stroke="#8CC63F" stroke-width="3" stroke-miterlimit="10" x1="206.672" y1="229.393" x2="212.489" y2="250.079"/>
		<path fill="#009245" d="M180.279,155.937c0,0,11.981,43.086,16.48,57.295c4.476,14.129,11.261,43.631,19.393,56.027
			c5.467,8.326,20.146,23.137,29.353,26.933c6.27,2.585,21.328,4.634,27.104,1.078c5.646-3.477,7.349-18.593,10.989-24.133
			c2.069-3.15,10.114-11.179,10.114-11.179l20.268,59.485l-101.166-2.262c0,0-16.278-59.333-20.202-79.445
			C187.887,215.52,180.279,155.937,180.279,155.937z"/>
		<line fill="none" stroke="#8CC63F" stroke-width="3" stroke-miterlimit="10" x1="252.5" y1="295" x2="252.5" y2="307"/>
		
			<line fill="none" stroke="#8CC63F" stroke-width="3" stroke-miterlimit="10" x1="278.428" y1="275.545" x2="281.012" y2="294.293"/>
		<line fill="none" stroke="#8CC63F" stroke-width="3" stroke-miterlimit="10" x1="219.6" y1="279.21" x2="228.221" y2="300.11"/>
		
			<line fill="none" stroke="#8CC63F" stroke-width="3" stroke-miterlimit="10" x1="147.199" y1="129.863" x2="142.673" y2="143.994"/>
		
			<line fill="none" stroke="#8CC63F" stroke-width="3" stroke-miterlimit="10" x1="153.017" y1="168.883" x2="163.87" y2="181.772"/>
		<line fill="none" stroke="#8CC63F" stroke-width="3" stroke-miterlimit="10" x1="334.5" y1="187" x2="334.5" y2="202"/>
		
			<line fill="none" stroke="#8CC63F" stroke-width="3" stroke-miterlimit="10" x1="320.124" y1="214.468" x2="317.859" y2="229.393"/>
		
			<line fill="none" stroke="#8CC63F" stroke-width="3" stroke-miterlimit="10" x1="329.495" y1="241.607" x2="318.99" y2="248.141"/>
		
			<line fill="none" stroke="#8CC63F" stroke-width="3" stroke-miterlimit="10" x1="303.314" y1="241.607" x2="292.001" y2="243.224"/>
		
			<line fill="none" stroke="#8CC63F" stroke-width="3" stroke-miterlimit="10" x1="312.244" y1="179.55" x2="317.859" y2="195.387"/>
		<path fill="#754C24" d="M356.097,394.404c0,48.138-45.818,87.162-102.34,87.162c-56.521,0-102.339-39.024-102.339-87.162
			c0-48.142,45.819-87.165,102.339-87.165C310.278,307.239,356.097,346.263,356.097,394.404z"/>
		<path fill="#603813" d="M356.097,394.404c0,48.138-45.818,87.162-102.34,87.162c-56.521,0,44.464-34.435,44.464-82.576
			c0-48.139-100.984-91.751-44.464-91.751C310.278,307.239,356.097,346.263,356.097,394.404z"/>
		<path fill="#A67C52" d="M157.851,311.563c0-15.24,14.102-19.563,14.102-19.563H297v42H171.119
			C171.119,334,157.851,329.676,157.851,311.563z"/>
		<path fill="#754C24" d="M347.371,314.438c0,15.238-14.097,19.563-14.097,19.563H292v-42h42.104
			C334.104,292,347.371,296.322,347.371,314.438z"/>
		<polygon fill="#8C6239" points="205.764,473 278,473 278,487 208.95,487 		"/>
		<polygon fill="#42210B" points="304.498,473 278,473 278,487 301.311,487 		"/>
	</g>
</g>
<g id="Layer_7">
	<g>
		<g>
			<path fill="#39B54A" d="M201.193,354.729c0,0-52.885-93.795-67.914-126.394c-7.83-16.981-20.167-51.857-24.705-70.63
				c-3.039-12.55-9.647-41.052-7.619-53.673c2.916-18.155,6.211-33.229,22.499-39.861c20.491-8.341,37.943,3.109,46.233,10.991
				c14.327,13.605,23.795,28.741,32.217,48.173c11.432,26.369,25.051,67.791,36.945,106.78
				c16.186,53.035,22.136,105.071,22.136,105.071L201.193,354.729z"/>
			<path fill="#009245" d="M125.696,63.817c0,0,15.268,23.68,19.701,31.965c11.979,22.375,31.086,68.775,39.652,92.417
				c14.093,38.883,51.892,157.082,51.892,157.082l7.378-2.545c0,0-36.8-122.678-51.542-162.725
				c-8.579-23.313-29.089-69.05-42.639-89.702C145.167,82.741,125.696,63.817,125.696,63.817z"/>
			<path fill="#009245" d="M122.856,64.795c0,0,5.927,29.783,7.544,39.042c4.367,24.999,22.925,71.541,33.135,94.663
				c16.699,37.822,67.404,148.853,67.404,148.853l-7.38,2.546c0,0-54.5-113.801-71.156-153.08
				c-9.504-22.407-27.05-69.754-29.11-94.373C122.539,93.426,122.856,64.795,122.856,64.795z"/>
			<path fill="#009245" d="M117.769,67.152c0,0-6.574,30.734-6.292,40.119c0.773,25.291,20.598,78.319,30.806,101.441
				c16.699,37.823,74.781,146.305,74.781,146.305l-7.376,2.542c0,0-60.397-111.282-77.053-150.56
				c-9.506-22.407-26.988-78.724-27.718-99.804C104.574,97.306,117.769,67.152,117.769,67.152z"/>
			<path fill="#009245" d="M138.37,61.267c0,0,24.124,24.686,29.685,32.249c14.986,20.388,34.331,64.94,40.545,89.442
				c10.167,40.072,41.16,157.902,41.16,157.902l7.381-2.543c0,0-30.9-121.463-41.998-162.658c-6.332-23.5-29.547-69.2-41.967-86.246
				C167.35,81.412,138.37,61.267,138.37,61.267z"/>
		</g>
		<g>
			<path fill="#39B54A" d="M269.708,318.055c0,0,10.355-102.14,16.102-136.012c2.985-17.643,11.521-52.065,17.457-69.575
				c3.964-11.708,13.156-38.15,20.395-47.458c10.408-13.385,19.602-24.075,33.13-21.576c17.02,3.144,22.778,20.948,24.362,31.396
				c2.754,18.045,1.677,34.981-2.087,54.912c-5.106,27.043-15.904,67.422-26.654,104.983c-14.622,51.093-35.31,96.409-35.31,96.409
				L269.708,318.055z"/>
			<path fill="#009245" d="M358.392,44.229c0,0-1.388,26.718-2.461,35.625c-2.88,24.051-12.474,71.036-18.129,94.471
				c-9.299,38.541-40.753,153.132-40.753,153.132l5.911,1.506c0,0,34.198-117.758,43.634-157.562
				c5.488-23.175,13.896-70.353,14.963-93.77C361.942,69.05,358.392,44.229,358.392,44.229z"/>
			<path fill="#009245" d="M356.117,43.651c0,0-10.232,27.159-13.553,35.491c-8.979,22.5-18.999,69.333-23.356,93.141
				c-7.132,38.94-26.967,153.949-26.967,153.949l-5.914-1.506c0,0,18.72-119.109,26.562-159.217
				c4.474-22.878,15.535-69.936,25.802-91.009C342.457,66.78,356.117,43.651,356.117,43.651z"/>
			<path fill="#009245" d="M351.754,43.105c0,0-18.66,21.865-22.898,29.655c-11.411,20.992-23.702,73.846-28.062,97.652
				c-7.134,38.939-21.085,155.574-21.085,155.574l-5.911-1.504c0,0,13.793-120.04,21.634-160.148
				c4.475-22.88,19.816-77.28,29.271-94.821C329.138,61.282,351.754,43.105,351.754,43.105z"/>
			<path fill="#009245" d="M367.688,48.302c0,0,3.793,31.835,3.788,40.699c-0.021,23.895-8.604,69.486-16.167,92.476
				c-12.364,37.609-47.987,148.596-47.987,148.596l5.913,1.507c0,0,37.396-113.902,49.694-152.875
				c7.016-22.232,13.676-70.698,13.763-90.625C376.74,78.732,367.688,48.302,367.688,48.302z"/>
		</g>
		<path opacity="0.5" fill="#103311" d="M210.831,341.324c0,0-21.873-111.105-26.431-148.575
			c-2.372-19.516-5.596-58.322-3.271-78.492c1.556-13.486,3.877-21.551,3.877-21.551l42.171,42.959l63.197,11.427l12.892-34.625
			c0,0,3.688,75.426,1.82,118.159c-2.545,58.129-14.133,111.771-14.133,111.771L210.831,341.324z"/>
		<g>
			<path fill="#39B54A" d="M214.56,318.475c0,0-21.305-111.106-25.23-148.576c-2.045-19.518-2.363-58.322-0.356-78.493
				c1.337-13.485,4.682-44.009,11.304-55.833c9.525-17.006,18.334-30.826,37.611-31.83c24.247-1.264,38.251,16.061,44.036,26.711
				c9.994,18.395,14.401,36.643,16.187,58.794c2.421,30.056,1.726,75.792,0.116,118.526c-2.189,58.131-14.637,111.77-14.637,111.77
				L214.56,318.475z"/>
			<path fill="#009245" d="M240.337,4.157c0,0,7.371,28.705,9.006,38.44c4.416,26.283,7.638,79.167,8.066,105.543
				C258.115,191.521,255.03,322,255.03,322h8.566c0,0,5.723-134.578,4.761-179.335c-0.562-26.058-5.467-78.591-12.14-103.71
				C253.771,29.751,240.337,4.157,240.337,4.157z"/>
			<path fill="#009245" d="M237.046,4.157c0,0-4.514,31.563-6.148,41.297c-4.415,26.283-1.817,79.12,0.503,105.544
				C235.191,194.215,248.063,322,248.063,322h-8.566c0,0-15.817-131.828-19.045-176.477c-1.84-25.471-3.102-78.593,3.571-103.711
				C226.47,32.608,237.046,4.157,237.046,4.157z"/>
			<path fill="#009245" d="M230.923,4.754c0,0-17.822,28.23-20.884,37.634c-8.253,25.341-6.664,85.617-4.346,112.037
				C209.483,197.645,230.923,326,230.923,326h-8.566c0,0-22.836-131.925-26.064-176.574c-1.84-25.471,0.179-87.751,6.963-108.906
				C206.438,30.597,230.923,4.754,230.923,4.754z"/>
			<path fill="#009245" d="M254.403,5.962c0,0,16.193,32.735,19.258,42.138c8.252,25.342,12.377,76.474,10.059,102.897
				C279.93,194.215,269.914,322,269.914,322h8.566c0,0,11.412-131.352,14.641-176.002c1.84-25.469-5.892-78.895-12.676-100.05
				C277.263,36.021,254.403,5.962,254.403,5.962z"/>
		</g>
		<path fill="#754C24" d="M352.858,396.313c0,48.704-46.358,88.188-103.545,88.188c-57.185,0-103.543-39.483-103.543-88.188
			c0-48.708,46.358-88.192,103.543-88.192C306.5,308.12,352.858,347.604,352.858,396.313z"/>
		<path fill="#603813" d="M352.858,396.313c0,48.704-46.358,88.188-103.545,88.188c-57.185,0,44.987-34.84,44.987-83.547
			c0-48.706-102.172-92.833-44.987-92.833C306.5,308.12,352.858,347.604,352.858,396.313z"/>
		<path fill="#A67C52" d="M152.28,312.047c0-15.422,14.267-20.047,14.267-20.047H293v43H165.703
			C165.703,335,152.28,330.371,152.28,312.047z"/>
		<path fill="#754C24" d="M344.031,314.953c0,15.418-14.264,20.047-14.264,20.047H288v-43h42.605
			C330.605,292,344.031,296.625,344.031,314.953z"/>
		<polygon fill="#8C6239" points="200.755,477 274,477 274,490 203.979,490 		"/>
		<polygon fill="#42210B" points="300.652,477 274,477 274,490 297.428,490 		"/>
	</g>
</g>
<g id="Layer_3">
	<g>
		<path fill="#E34F26" d="M256.286,325.782l-1.85-22.597l22.081,0.045l-1.955,22.552l-9.002,2.606L256.286,325.782z"/>
		<path fill="#EF652A" d="M265.561,326.207v-20.869l9.093,0.03l-1.621,18.671L265.561,326.207z"/>
		<path fill="#FFFFFF" d="M272.153,310.551l0.257-2.759h-13.988l0.773,8.457h9.653l-0.378,3.606l-3.091,0.834l-3.138-0.909
			l-0.167-2.151h-2.774l0.379,4.395l5.699,1.592l5.743-1.592l0.773-8.578h-10.139l-0.288-2.895H272.153z"/>
	</g>
</g>
<g id="Layer_4">
	<g>
		<path fill-rule="evenodd" clip-rule="evenodd" fill="#264DE3" d="M217.732,303.33c7.067,0,14.135,0,21.203,0
			c-0.04,0.455-0.08,0.91-0.121,1.366c-0.056,0.628-0.112,1.257-0.168,1.886c-0.057,0.638-0.115,1.276-0.172,1.915
			c-0.056,0.631-0.112,1.263-0.168,1.895c-0.058,0.646-0.116,1.29-0.173,1.936c-0.056,0.628-0.112,1.257-0.168,1.885
			c-0.063,0.712-0.128,1.424-0.192,2.135c-0.057,0.635-0.112,1.271-0.169,1.905c-0.063,0.712-0.128,1.423-0.192,2.135
			c-0.063,0.708-0.125,1.417-0.188,2.125c-0.07,0.784-0.143,1.568-0.209,2.354c-0.007,0.081-0.031,0.112-0.108,0.134
			c-1.067,0.293-2.133,0.59-3.199,0.886c-1.76,0.488-3.521,0.976-5.28,1.465c-0.073,0.021-0.139,0.021-0.213,0
			c-2.032-0.566-4.065-1.131-6.098-1.695c-0.793-0.22-1.586-0.44-2.38-0.658c-0.058-0.017-0.082-0.039-0.083-0.101
			c-0.002-0.1-0.016-0.199-0.025-0.299c-0.058-0.642-0.115-1.284-0.172-1.926c-0.057-0.632-0.112-1.264-0.168-1.896
			c-0.064-0.715-0.128-1.429-0.192-2.145c-0.056-0.631-0.111-1.263-0.167-1.895c-0.064-0.726-0.129-1.45-0.194-2.175
			c-0.056-0.625-0.111-1.25-0.167-1.875c-0.058-0.646-0.115-1.29-0.173-1.936c-0.056-0.628-0.112-1.257-0.167-1.886
			c-0.058-0.645-0.116-1.29-0.173-1.935c-0.057-0.639-0.115-1.276-0.171-1.915C217.831,304.453,217.782,303.892,217.732,303.33z
			 M228.333,315.786c0,1.411,0,2.821,0,4.232c-0.02-0.002-0.04-0.001-0.058-0.006c-0.937-0.252-1.873-0.506-2.81-0.756
			c-0.077-0.021-0.106-0.055-0.113-0.133c-0.053-0.629-0.112-1.257-0.163-1.886c-0.008-0.095-0.027-0.129-0.132-0.129
			c-0.802,0.006-1.604,0.003-2.405,0.004c-0.148,0-0.141-0.027-0.126,0.142c0.042,0.495,0.089,0.99,0.134,1.486
			c0.073,0.817,0.147,1.636,0.217,2.453c0.005,0.067,0.031,0.09,0.089,0.105c0.348,0.094,0.694,0.19,1.042,0.287
			c1.441,0.4,2.883,0.802,4.325,1.202c0,0.228,0,0.454,0,0.682c0,0.651,0,1.302,0,1.953c0,0.059-0.009,0.119,0.088,0.092
			c0.553-0.155,1.106-0.308,1.66-0.461c0.888-0.246,1.776-0.493,2.664-0.739c0.823-0.229,1.646-0.459,2.471-0.682
			c0.115-0.031,0.146-0.096,0.151-0.197c0.006-0.12,0.018-0.239,0.028-0.358c0.023-0.266,0.048-0.531,0.072-0.797
			c0.023-0.258,0.043-0.518,0.066-0.776c0.031-0.345,0.063-0.689,0.094-1.034c0.022-0.256,0.043-0.511,0.066-0.767
			c0.024-0.269,0.05-0.537,0.074-0.806c0.022-0.252,0.043-0.504,0.066-0.757c0.031-0.348,0.063-0.696,0.095-1.044
			c0.023-0.259,0.045-0.518,0.069-0.776s0.048-0.518,0.071-0.776c0.023-0.259,0.044-0.518,0.067-0.776
			c0.03-0.341,0.063-0.683,0.093-1.024c0.023-0.259,0.043-0.518,0.066-0.776c0.024-0.269,0.05-0.537,0.074-0.806
			c0.023-0.252,0.044-0.504,0.066-0.757c0.031-0.348,0.063-0.696,0.094-1.044c0.022-0.252,0.043-0.505,0.065-0.757
			c0.024-0.271,0.05-0.544,0.075-0.815c0.022-0.249,0.043-0.498,0.065-0.747c0.031-0.352,0.064-0.702,0.095-1.054
			c0.022-0.249,0.042-0.498,0.065-0.747c0.031-0.331,0.066-0.662,0.094-0.994c0.012-0.148,0.002-0.153-0.144-0.153
			c-2.789,0-5.577,0-8.366,0c-0.146,0-0.146,0-0.146,0.143c0,0.839,0,1.677,0,2.515c-0.043,0.003-0.086,0.006-0.13,0.006
			c-2.124,0.001-4.249,0.001-6.373,0.001c-0.027,0-0.054,0.002-0.08-0.001c-0.059-0.007-0.075,0.019-0.067,0.075
			c0.015,0.119,0.025,0.238,0.036,0.358c0.063,0.698,0.127,1.396,0.186,2.095c0.008,0.094,0.035,0.124,0.136,0.123
			c2.054-0.003,4.108-0.002,6.162-0.002c0.043,0,0.086,0.004,0.13,0.007c0,0.903,0,1.807,0,2.711
			c-0.043,0.001-0.086,0.005-0.13,0.005c-1.659,0-3.319,0-4.979,0c-0.324,0-0.648,0.002-0.972-0.001
			c-0.073-0.001-0.101,0.014-0.091,0.093c0.021,0.169,0.032,0.339,0.047,0.508c0.058,0.642,0.118,1.283,0.171,1.925
			c0.008,0.096,0.03,0.127,0.133,0.127c1.893-0.004,3.787-0.003,5.68-0.002C228.24,315.778,228.286,315.783,228.333,315.786z"/>
		<path fill-rule="evenodd" clip-rule="evenodd" fill="#FEFEFE" d="M228.333,322.789c-1.442-0.4-2.884-0.802-4.325-1.202
			c-0.347-0.097-0.694-0.193-1.042-0.287c-0.058-0.016-0.084-0.038-0.089-0.105c-0.07-0.817-0.144-1.636-0.217-2.453
			c-0.045-0.496-0.092-0.991-0.134-1.486c-0.015-0.169-0.022-0.142,0.126-0.142c0.801-0.001,1.603,0.002,2.405-0.004
			c0.104,0,0.124,0.034,0.132,0.129c0.051,0.629,0.11,1.257,0.163,1.886c0.007,0.078,0.036,0.112,0.113,0.133
			c0.937,0.25,1.874,0.504,2.81,0.756c0.019,0.005,0.039,0.004,0.058,0.006c0.962-0.259,1.924-0.519,2.887-0.774
			c0.073-0.02,0.071-0.069,0.075-0.121c0.024-0.269,0.046-0.538,0.07-0.808c0.072-0.811,0.144-1.622,0.22-2.433
			c0.008-0.086-0.014-0.105-0.098-0.105c-1.021,0.003-2.043,0.002-3.065,0.003c-0.03,0-0.06,0.004-0.089,0.006
			c-0.046-0.003-0.093-0.008-0.139-0.008c-1.893-0.001-3.787-0.002-5.68,0.002c-0.103,0-0.125-0.031-0.133-0.127
			c-0.053-0.642-0.113-1.283-0.171-1.925c-0.015-0.169-0.027-0.339-0.047-0.508c-0.01-0.079,0.018-0.094,0.091-0.093
			c0.324,0.003,0.648,0.001,0.972,0.001c1.66,0,3.319,0,4.979,0c0.043,0,0.086-0.004,0.13-0.005c0.04,0.001,0.08,0.004,0.12,0.004
			c1.075,0,2.15,0,3.225,0c0.148,0,0.148,0,0.16-0.147c0-0.003,0-0.007,0.001-0.01c0.072-0.814,0.143-1.629,0.219-2.442
			c0.009-0.096-0.009-0.124-0.11-0.123c-1.172,0.004-2.343,0.002-3.515,0.002c-0.033,0.001-0.066,0.004-0.1,0.006
			c-0.043-0.003-0.086-0.007-0.13-0.007c-2.054,0-4.108-0.001-6.162,0.002c-0.101,0.001-0.127-0.029-0.136-0.123
			c-0.059-0.698-0.123-1.396-0.186-2.095c-0.011-0.12-0.021-0.239-0.036-0.358c-0.007-0.057,0.008-0.082,0.067-0.075
			c0.026,0.003,0.053,0.001,0.08,0.001c2.124,0,4.249,0,6.373-0.001c0.043,0,0.086-0.003,0.13-0.006
			c0.043,0.002,0.086,0.005,0.13,0.005c2.13,0,4.261,0.001,6.392-0.001c0.085-0.001,0.122,0.011,0.113,0.111
			c-0.06,0.617-0.112,1.236-0.168,1.854c-0.064,0.722-0.129,1.442-0.194,2.164c-0.056,0.625-0.112,1.25-0.167,1.875
			c-0.064,0.715-0.129,1.43-0.193,2.145c-0.056,0.631-0.112,1.263-0.168,1.895c-0.057,0.646-0.115,1.29-0.173,1.935
			c-0.044,0.489-0.089,0.978-0.131,1.467c-0.005,0.059-0.027,0.085-0.084,0.101c-1.407,0.389-2.814,0.777-4.221,1.168
			C229.089,322.574,228.711,322.683,228.333,322.789z"/>
		<path fill-rule="evenodd" clip-rule="evenodd" fill="#2965F0" d="M228.333,322.789c0.378-0.106,0.756-0.215,1.134-0.32
			c1.407-0.391,2.814-0.779,4.221-1.168c0.057-0.016,0.079-0.042,0.084-0.101c0.042-0.489,0.087-0.978,0.131-1.467
			c0.058-0.645,0.116-1.289,0.173-1.935c0.056-0.632,0.112-1.264,0.168-1.895c0.064-0.715,0.129-1.43,0.193-2.145
			c0.056-0.625,0.112-1.25,0.167-1.875c0.064-0.722,0.129-1.442,0.194-2.164c0.056-0.618,0.108-1.237,0.168-1.854
			c0.009-0.101-0.027-0.112-0.113-0.111c-2.13,0.002-4.261,0.001-6.392,0.001c-0.043,0-0.087-0.003-0.13-0.005
			c0-0.838,0-1.676,0-2.515c0-0.143,0-0.143,0.146-0.143c2.789,0,5.577,0,8.366,0c0.146,0,0.156,0.005,0.144,0.153
			c-0.028,0.332-0.063,0.663-0.094,0.994c-0.023,0.249-0.043,0.498-0.065,0.747c-0.031,0.352-0.064,0.702-0.095,1.054
			c-0.022,0.249-0.043,0.498-0.065,0.747c-0.024,0.271-0.05,0.544-0.075,0.815c-0.022,0.252-0.043,0.505-0.065,0.757
			c-0.031,0.348-0.063,0.696-0.094,1.044c-0.022,0.253-0.043,0.505-0.066,0.757c-0.024,0.269-0.05,0.537-0.074,0.806
			c-0.023,0.259-0.043,0.518-0.066,0.776c-0.031,0.342-0.063,0.684-0.093,1.024c-0.023,0.259-0.044,0.518-0.067,0.776
			c-0.023,0.259-0.047,0.518-0.071,0.776s-0.046,0.518-0.069,0.776c-0.032,0.348-0.064,0.696-0.095,1.044
			c-0.022,0.253-0.043,0.505-0.066,0.757c-0.024,0.269-0.05,0.537-0.074,0.806c-0.023,0.256-0.043,0.511-0.066,0.767
			c-0.031,0.345-0.063,0.689-0.094,1.034c-0.023,0.259-0.043,0.519-0.066,0.776c-0.023,0.266-0.048,0.531-0.072,0.797
			c-0.01,0.119-0.021,0.238-0.028,0.358c-0.006,0.102-0.037,0.166-0.151,0.197c-0.825,0.223-1.648,0.453-2.471,0.682
			c-0.888,0.246-1.775,0.493-2.664,0.739c-0.553,0.153-1.107,0.306-1.66,0.461c-0.098,0.027-0.088-0.033-0.088-0.092
			c0-0.651,0-1.302,0-1.953C228.333,323.243,228.333,323.017,228.333,322.789z"/>
		<path fill-rule="evenodd" clip-rule="evenodd" fill="#2965F0" d="M228.333,315.786c0.03-0.002,0.06-0.006,0.089-0.006
			c1.021-0.001,2.043,0,3.065-0.003c0.084,0,0.105,0.02,0.098,0.105c-0.076,0.811-0.147,1.622-0.22,2.433
			c-0.024,0.27-0.046,0.539-0.07,0.808c-0.004,0.052-0.002,0.102-0.075,0.121c-0.963,0.256-1.925,0.516-2.887,0.774
			C228.333,318.607,228.333,317.197,228.333,315.786z"/>
		<path fill-rule="evenodd" clip-rule="evenodd" fill="#2965F0" d="M228.333,310.413c0.033-0.002,0.066-0.005,0.1-0.006
			c1.171,0,2.343,0.002,3.515-0.002c0.102-0.001,0.119,0.027,0.11,0.123c-0.076,0.813-0.147,1.628-0.219,2.442
			c0,0.003,0,0.007-0.001,0.01c-0.012,0.147-0.012,0.147-0.16,0.147c-1.075,0-2.149,0-3.225,0c-0.04,0-0.08-0.003-0.12-0.004
			C228.333,312.22,228.333,311.316,228.333,310.413z"/>
	</g>
</g>
<g id="Layer_5">
	<g>
		<path fill-rule="evenodd" clip-rule="evenodd" fill="#3E3B59" d="M205.03,307.498c-0.21,0.246-0.437,0.473-0.757,0.567
			c-0.162,0.045-0.225,0.121-0.203,0.299c0.075,0.614-0.353,0.76-0.821,0.811c-0.766,0.083-1.477-0.144-1.972-0.717
			c-0.601-0.698-1.344-0.368-2.025-0.389c-0.303-0.009-0.066,0.28-0.006,0.4c0.857,1.711,1.239,3.535,0.806,5.392
			c-0.408,1.739-0.315,3.474-0.335,5.216c-0.018,1.592-0.003,3.185-0.003,4.776c0,1.705-0.693,2.648-2.384,2.958
			c-1.864,0.341-3.734,0.425-5.399-0.775c-0.188-0.134-0.422-0.119-0.64-0.153c-1.805-0.279-2.721-1.345-2.721-3.164
			c0-0.644,0.007-1.29-0.001-1.935c-0.01-0.701-0.586-0.358-0.903-0.45c-0.386-0.111-0.267,0.246-0.269,0.429
			c-0.01,1.069-0.012,2.137-0.003,3.205c0.012,1.673-0.653,2.593-2.275,3.014c-1.432,0.372-2.907,0.409-4.289-0.104
			c-1.18-0.44-2.275-1.125-3.375-1.748c-0.961-0.544-1.246-1.579-1.244-2.667c0.004-1.774-0.021-3.549,0.015-5.321
			c0.011-0.535-0.196-0.608-0.638-0.54c-1.007,0.154-1.622,0.7-1.759,1.781c-0.202,1.598-0.32,3.206-0.472,4.811
			c-0.044,0.461-0.092,0.922-0.123,1.384c-0.062,0.929-0.436,1.405-1.335,1.609c-0.594,0.136-1.198,0.104-1.801,0.006
			c-0.691-0.112-1.033-0.614-1.346-1.159c0-0.04,0-0.08,0-0.121c0.196-0.097,0.122-0.279,0.122-0.426
			c-0.003-2.612,0.007-5.224-0.028-7.834c-0.011-0.833,0.131-1.676-0.093-2.503c0-1.613,0-3.226,0-4.838
			c0.212-0.099,0.144-0.316,0.18-0.477c0.368-1.642,1.337-2.803,2.815-3.563c0.774-0.398,1.598-0.647,2.451-0.813
			c0.249-0.051,0.528-0.031,0.726-0.245c0.759-0.813,1.653-1.44,2.656-1.916c0.444,0,0.887,0,1.331,0
			c0.726,0.646,1.451,0.314,2.177,0c0.201,0,0.403,0,0.604,0c0.82,0.25,1.645,0.501,2.174,1.245
			c0.199,0.279,0.436,0.354,0.764,0.348c1.99-0.041,3.98-0.094,5.971-0.082c2.653,0.014,5.085,0.688,7.079,2.557
			c0.288,0.27,3.022,0.278,3.323,0.03c0.093-0.077,0.173-0.169,0.263-0.249c0.443-0.396,0.943-0.688,1.536-0.783
			c0.404-0.065,0.864,0.002,0.961,0.415c0.105,0.448,0.334,0.623,0.717,0.734c0.258,0.074,0.391,0.309,0.552,0.502
			C205.03,307.176,205.03,307.338,205.03,307.498z M171.042,306.521l-0.003,0.001c-0.078-0.006-0.122,0.028-0.126,0.107
			l-0.006,0.007c-0.077-0.002-0.116,0.035-0.116,0.112l-0.007,0.008c-0.077-0.001-0.115,0.037-0.114,0.113l-0.008,0.007
			c-0.078,0.004-0.113,0.045-0.111,0.12l-0.004,0.005c-0.081,0.004-0.115,0.049-0.109,0.127v0.003
			c-0.082,0.004-0.117,0.049-0.111,0.127h0.001c-0.118,0.028-0.154,0.111-0.145,0.223l-0.002,0.003
			c-0.079,0.014-0.105,0.064-0.096,0.14l0.002-0.003c-0.118,0.041-0.148,0.127-0.128,0.239l0-0.001
			c-0.125,0.05-0.141,0.148-0.122,0.266c-0.042,0.105-0.082,0.208-0.123,0.313c-0.312,0.499-0.341,1.077-0.347,1.624
			c-0.045,4.854-0.042,9.709,0.049,14.562c0.01,0.551,0.272,0.879,0.793,0.982c0.577,0.111,1.159,0.128,1.731-0.053
			c0.458-0.145,0.667-0.438,0.705-0.931c0.149-1.946,0.336-3.889,0.497-5.834c0.17-2.068,1.375-2.732,2.527-2.774
			c0.816-0.03,1.316-0.45,1.727-1.036c0.461-0.659,0.634-1.428,0.677-2.225c0.032-0.586-0.629-0.4-0.833-0.734
			c-0.071-0.118-0.222-0.218-0.09-0.36c0.129-0.141,0.261-0.024,0.37,0.062c0.444,0.345,0.865,0.391,1.283-0.051
			c0.129-0.138,0.202-0.525,0.465-0.295c0.244,0.212-0.066,0.42-0.203,0.593c-0.084,0.106-0.213,0.18-0.33,0.255
			c-0.197,0.128-0.318,0.281-0.316,0.538c0.011,1.328-0.429,2.462-1.576,3.352c0.759,0.164,1.425,0.389,2.101,0.426
			c0.427,0.022,0.427,0.161,0.425,0.473c-0.008,1.955-0.004,3.908-0.002,5.861c0,0.165,0.021,0.33,0.033,0.51
			c0.261-0.121,0.277-0.482,0.601-0.406c-0.623,0.79-0.942,1.616-0.245,2.636c-0.039-0.892,0.135-1.662,0.432-2.406
			c0.093-0.233-0.034-0.229-0.191-0.226c0.146-0.442,0.551-0.282,0.851-0.367c-0.459,0.823-0.728,1.683-0.733,2.649
			c-0.003,0.594,0.423,0.973,0.836,1.082c0.311,0.081,0.454,0.021,0.399-0.344c-0.082-0.545-0.075-1.103,0.201-1.589
			c0.373-0.655,0.743-1.287,0.26-2.041c0.409,0.189,0.348,0.723,0.673,0.953c0.797,0.565,0.766,1.444,0.855,2.259
			c0.026,0.236,0.017,0.618-0.319,0.785c0-0.078-0.023-0.164,0.001-0.232c0.283-0.782,0.029-1.508-0.263-2.214
			c-0.183-0.44-0.406-0.439-0.677-0.038c-0.226,0.338-0.348,0.721-0.449,1.111c-0.292,1.117,0.17,1.658,1.271,1.489
			c0.273,0.263,0.609,0.122,0.909,0.114c2.122-0.064,2.968-0.941,2.968-3.039c0-1.369,0.001-2.738-0.001-4.107
			c0-0.238,0.04-0.481,0.305-0.517c0.273-0.035,0.307,0.203,0.305,0.416c-0.001,0.219,0.1,0.319,0.316,0.36
			c1.004,0.193,2.002,0.114,2.999-0.043c0.137-0.022,0.28-0.074,0.298-0.252c0.025-0.238,0.089-0.47,0.387-0.422
			c0.357,0.061,0.236,0.374,0.238,0.592c0.01,1.28,0.005,2.561,0.005,3.842c0.249-0.313,0.342-0.758,0.789-0.843
			c0.348-0.066,0.605-0.267,0.879-0.457c0.081,0.19-0.073,0.299-0.156,0.425c-0.433,0.659-0.605,1.398-0.677,2.168
			c-0.08,0.859,0.186,1.367,1.148,1.45c0.043,0.036,0.091,0.067,0.127,0.002c0.01-0.017-0.027-0.059-0.042-0.089
			c-0.322-0.907-0.138-1.752,0.378-2.521c0.221-0.329,0.257-0.592,0.057-0.93c-0.196-0.329-0.404-0.594-0.839-0.502
			c0.168-0.486,0.538-0.301,0.669-0.082c0.359,0.599,0.91,1.049,1.252,1.633c0.475,0.81,0.716,1.71,0.169,2.658
			c0.957,0.083,1.827-0.052,2.633-0.438c0.63-0.302,1.062-0.808,1.063-1.559c0.006-2.658-0.001-5.317,0.005-7.978
			c0-0.372-0.212-0.715-0.031-1.119c0.237-0.531,0.333-1.109,0.425-1.688c0.525-3.318-1.227-6.423-3.961-8.012
			c-1.133-0.658-2.391-0.927-3.667-1.079c-2.31-0.281-4.626,0.062-6.94-0.005c-0.348-0.009-0.343,0.142-0.248,0.411
			c0.158,0.455,0.288,0.92,0.417,1.384c0.298,1.06,0.197,2.156,0.306,3.234c-0.208,0.396,0.03,0.41,0.338,0.432
			c1.207,0.081,1.83,0.475,1.989,1.226c0.28,1.325-0.568,2.675-1.883,3.013c-0.535,0.137-1.076,0.12-1.619,0.112
			c-0.245-0.003-0.495-0.024-0.576,0.296c-0.077,0.305-0.185,0.604-0.236,0.912c-0.108,0.655-0.602,0.288-0.909,0.33
			c-0.409,0.055-0.354-0.285-0.304-0.545c0.097-0.508,0.207-1.014,0.314-1.531c-0.238-0.005-0.409,0.028-0.542,0.173
			c-0.679-0.059-0.941,0.328-0.99,0.936c-0.016,0.204-0.089,0.372-0.313,0.359c-0.221-0.013-0.289-0.191-0.281-0.394
			c0.004-0.119,0.02-0.24,0.041-0.357c0.156-0.878,0.834-1.107,1.573-1.263c1.659-0.348,2.352-1.082,2.622-2.719
			c0.203-1.227,0.16-2.447-0.043-3.662c-0.157-0.932-0.408-1.84-0.964-2.641s-1.91-1.462-2.762-1.095
			c-0.29-0.006-0.548,0.104-0.796,0.234c-0.953,0.505-1.903,1.016-2.857,1.517c-0.155,0.083-0.317,0.257-0.493,0.167
			c-0.511-0.261-1.021-0.068-1.532-0.042c-0.255-0.017-0.514-0.058-0.737,0.12l0.002-0.001c-0.605,0.018-1.179,0.147-1.695,0.481
			h-0.001c-0.115-0.03-0.207,0.001-0.271,0.104c-0.018,0.012-0.037,0.021-0.057,0.029c-0.118-0.021-0.22-0.009-0.268,0.123l0-0.001
			c-0.114-0.023-0.204-0.001-0.241,0.124h0.002c-0.182-0.016-0.309,0.055-0.372,0.23l-0.002,0.001
			c-0.183-0.009-0.301,0.074-0.356,0.247l0,0C171.09,306.404,171.045,306.44,171.042,306.521z M184.35,312.686
			c-0.14,0.154-0.458,0.243-0.365,0.486c0.106,0.277,0.419,0.136,0.646,0.14c0.14,0.005,0.281-0.015,0.419-0.032
			c0.896-0.12,1.467-0.84,1.362-1.729c-0.063-0.532-0.474-0.631-0.907-0.71c-0.346-0.065-0.425,0.117-0.421,0.403
			C184.886,311.749,184.683,312.25,184.35,312.686z M178.18,322.249c0.408,0.014,0.253,0.498,0.591,0.676c0-1.463,0-2.878,0-4.292
			c0-1.636-0.001-1.627-1.631-1.876c-0.204-0.032-0.316-0.045-0.316,0.184c-0.003,1.375-0.002,2.749-0.002,4.176
			c0.608-0.45,0.811-0.4,1.092,0.225c0.13,0.289,0.263,0.585,0.271,0.912c-0.09,0.031-0.221,0.033-0.265,0.097
			c-0.362,0.528-0.51,1.123-0.47,1.758c0.031,0.49,0.396,0.612,0.792,0.756c0.172,0.063,0.311,0.376,0.513,0.187
			c0.086-0.08,0.203-0.457-0.156-0.569c-0.023-0.008-0.036-0.111-0.022-0.161C178.787,323.563,178.382,322.925,178.18,322.249z
			 M195.358,325.212c0.052-0.543-0.096-1.057-0.368-1.538c-0.163-0.288-0.393-0.391-0.59-0.061
			c-0.421,0.702-0.676,1.444-0.406,2.284c0.124,0.389,0.43,0.472,0.749,0.446c0.317-0.025,0.55-0.246,0.609-0.577
			C195.384,325.592,195.358,325.407,195.358,325.212z M191.225,325.216c-0.492-0.738-0.232-1.621-0.565-2.372
			c-0.064-0.146-0.116-0.299-0.197-0.435c-0.09-0.151-0.224-0.188-0.317-0.006c-0.314,0.609-0.619,1.251-0.391,1.938
			C189.969,324.99,190.641,325.027,191.225,325.216z M175.906,304.17c1.313,0.326,2.148-0.501,3.162-1.071
			C178.124,302.628,176.963,303.03,175.906,304.17z M191.012,322.844c0-0.374,0-0.748,0-1.124c0-1.415,0-1.415-1.399-1.29
			c-0.436,0.037-0.436,0.037-0.356,0.555c0.492-0.388,0.808-0.146,0.958,0.327C190.392,321.866,190.732,322.329,191.012,322.844z
			 M201.232,307.331c0.213,0.048,0.425,0.124,0.641,0.14c0.714,0.048,1.427,0.293,2.146,0.039c0.147-0.051,0.352-0.078,0.354-0.272
			c0.001-0.197-0.202-0.231-0.352-0.263C203.063,306.777,202.131,306.869,201.232,307.331z M177.041,323.749
			c0.157-0.745,0.314-1.303,0.718-1.79c0.257-0.31-0.02-0.707-0.274-0.875c-0.307-0.202-0.443,0.179-0.525,0.394
			C176.689,322.174,176.737,322.879,177.041,323.749z M189.297,323.655c0.151-0.634,0.363-1.197,0.779-1.709
			c0.221-0.272-0.031-0.698-0.327-0.85c-0.266-0.139-0.409,0.179-0.473,0.402C189.073,322.211,189.169,322.925,189.297,323.655z
			 M192.253,325.418c-0.134-0.941,0.114-1.73,0.315-2.563C191.627,323.396,191.438,324.684,192.253,325.418z M198.566,307.165
			c-0.006,0.067-0.012,0.132-0.018,0.2c0.506,0.2,1.045,0.063,1.569,0.087c0.087,0.003,0.153-0.059,0.146-0.149
			c-0.006-0.089-0.078-0.136-0.166-0.136C199.586,307.165,199.076,307.165,198.566,307.165z M201.861,308.123
			c0.392,0.393,0.799,0.488,1.248,0.468c0.13-0.007,0.317,0.025,0.315-0.181c0-0.13-0.13-0.188-0.257-0.212
			C202.763,308.123,202.358,308.074,201.861,308.123z M202.211,306.239c0.337,0.026,0.691,0.185,1-0.065
			c0.019-0.017-0.001-0.135-0.033-0.152C202.807,305.818,202.523,306.072,202.211,306.239z"/>
		<path fill-rule="evenodd" clip-rule="evenodd" fill="#778BC7" d="M168.75,314.149c0.225,0.827,0.083,1.67,0.093,2.503
			c0.036,2.61,0.025,5.222,0.028,7.834c0,0.146,0.075,0.329-0.122,0.426C168.75,321.324,168.75,317.736,168.75,314.149z"/>
		<path fill-rule="evenodd" clip-rule="evenodd" fill="#FCFCFC" d="M181.085,302.298c-0.726,0.314-1.452,0.646-2.177,0
			C179.634,302.298,180.359,302.298,181.085,302.298z"/>
		<path fill-rule="evenodd" clip-rule="evenodd" fill="#778BC7" d="M180.842,303.074c0.853-0.367,2.206,0.294,2.762,1.095
			s0.807,1.709,0.964,2.641c0.204,1.215,0.247,2.436,0.043,3.662c-0.27,1.637-0.962,2.371-2.622,2.719
			c-0.738,0.155-1.417,0.385-1.573,1.263c-0.021,0.117-0.036,0.238-0.041,0.357c-0.008,0.202,0.061,0.381,0.281,0.394
			c0.224,0.013,0.297-0.155,0.313-0.359c0.049-0.607,0.311-0.994,0.99-0.936c-0.038,0.276-0.057,0.558-0.114,0.831
			c-0.299,1.45-0.19,1.571,1.286,1.491c0.379-0.021,0.68-0.181,0.696-0.533c0.041-0.908,0.525-1.133,1.323-0.997
			c0.094,0.018,0.198-0.027,0.297-0.038c0.772-0.081,1.407-0.467,2.072-1.011c-0.108,0.673,0.089,1.009,0.697,1.049
			c0.896,0.058,1.276-0.127,1.412-0.774c0.149-0.707,0.312-1.418,0.38-2.137c0.052-0.538,0.379-0.495,0.72-0.46
			c0.457,0.046,0.308,0.419,0.271,0.655c-0.076,0.479-0.301,0.946-0.319,1.424c-0.043,1.148-0.183,1.278,1.021,1.274
			c0.121,0,0.245,0.018,0.362-0.002c0.404-0.07,0.482,0.028,0.354,0.444c-0.117,0.378-0.225,0.869,0.32,1.075
			c0.995,0.372,1.674-0.006,1.84-1.041c0.06-0.373,0.185-0.529,0.571-0.501c0.279,0.022,0.563-0.016,0.843-0.048
			c0.826-0.09,1.585-0.354,2.122-1.019c0.66-0.818,0.912-1.757,0.548-2.77c-0.338-0.944-1.142-1.245-2.063-1.295
			c-0.602-0.033-1.208-0.013-1.81-0.044c-0.713-0.036-1.357,0.014-1.439,1.09c-0.549-0.95-1.33-1.081-2.124-1.076
			c-0.563,0.003-0.847-0.075-0.621-0.716c0.078-0.219,0.117-0.507-0.095-0.684c-0.418-0.346-0.925-0.21-1.391-0.154
			c-0.322,0.04-0.528,0.281-0.636,0.627c-0.198,0.639-0.137,1.346-0.494,1.996c-0.675-0.923-1.617-1.052-2.602-1.075
			c-0.109-1.078-0.007-2.175-0.306-3.234c-0.129-0.464-0.259-0.929-0.417-1.384c-0.095-0.27-0.1-0.42,0.248-0.411
			c2.314,0.066,4.631-0.276,6.94,0.005c1.275,0.152,2.533,0.421,3.667,1.079c2.735,1.589,4.486,4.693,3.961,8.012
			c-0.091,0.579-0.188,1.157-0.425,1.688c-0.181,0.404,0.032,0.747,0.031,1.119c-0.007,2.66,0,5.319-0.005,7.978
			c-0.001,0.751-0.434,1.257-1.063,1.559c-0.806,0.387-1.676,0.521-2.633,0.438c0.547-0.948,0.306-1.849-0.169-2.658
			c-0.343-0.584-0.894-1.034-1.252-1.633c-0.131-0.219-0.501-0.404-0.669,0.082l0.004-0.004c-0.273,0.19-0.531,0.391-0.879,0.457
			c-0.447,0.085-0.54,0.53-0.789,0.843c0-1.281,0.005-2.562-0.005-3.842c-0.002-0.218,0.119-0.531-0.238-0.592
			c-0.298-0.048-0.362,0.184-0.387,0.422c-0.019,0.178-0.161,0.229-0.298,0.252c-0.997,0.157-1.995,0.236-2.999,0.043
			c-0.216-0.041-0.317-0.142-0.316-0.36c0.002-0.213-0.032-0.451-0.305-0.416c-0.266,0.035-0.305,0.278-0.305,0.517
			c0.003,1.369,0.001,2.738,0.001,4.107c0,2.098-0.847,2.975-2.968,3.039c-0.3,0.008-0.636,0.148-0.909-0.114l-0.006,0.005
			c0.042-0.043,0.085-0.085,0.127-0.128l-0.006,0.007c0.336-0.167,0.345-0.549,0.319-0.785c-0.089-0.814-0.058-1.693-0.855-2.259
			c-0.325-0.23-0.265-0.764-0.673-0.953l0.005,0.004c-0.042-0.041-0.085-0.084-0.126-0.126l0.006,0.005
			c-0.429-0.355-0.693-0.243-0.852,0.364l0.004-0.005c-0.3,0.085-0.705-0.075-0.851,0.367l0.004-0.004
			c-0.323-0.076-0.34,0.285-0.601,0.406c-0.012-0.18-0.033-0.345-0.033-0.51c-0.002-1.953-0.006-3.906,0.002-5.861
			c0.002-0.312,0.002-0.45-0.425-0.473c-0.676-0.037-1.342-0.262-2.101-0.426c1.147-0.89,1.587-2.023,1.576-3.352
			c-0.002-0.257,0.119-0.41,0.316-0.538c0.117-0.075,0.246-0.148,0.33-0.255c0.137-0.173,0.447-0.381,0.203-0.593
			c-0.263-0.23-0.335,0.157-0.465,0.295c-0.418,0.441-0.839,0.396-1.283,0.051c-0.108-0.086-0.24-0.202-0.37-0.062
			c-0.131,0.143,0.02,0.242,0.09,0.36c0.204,0.334,0.864,0.148,0.833,0.734c-0.043,0.797-0.216,1.565-0.677,2.225
			c-0.411,0.586-0.911,1.006-1.727,1.036c-1.152,0.042-2.357,0.706-2.527,2.774c-0.161,1.945-0.348,3.888-0.497,5.834
			c-0.038,0.492-0.247,0.786-0.705,0.931c-0.573,0.181-1.155,0.164-1.731,0.053c-0.521-0.104-0.783-0.432-0.793-0.982
			c-0.091-4.853-0.094-9.707-0.049-14.562c0.005-0.547,0.035-1.125,0.347-1.623c0,5.165,0,10.333,0,15.498
			c0.187-1.379,0.129-2.763,0.205-4.146c0.127-2.329,0.128-4.665,0.145-6.997c0.006-0.767,0.059-1.531,0.162-2.281
			c0.129-0.937,0.498-1.799,1.152-2.521c1.103-1.22,2.563-1.672,4.103-1.956c0.135-0.025,0.343-0.064,0.41,0.006
			c0.501,0.532,0.893,0.104,1.255-0.157c1.059-0.762,2.109-1.537,3.327-2.029C180.874,303.692,180.858,303.401,180.842,303.074z
			 M174.17,309.689c0.072-0.312,0.54-0.291,0.561-0.719c-0.681,0.028-1.262,0.225-1.707,0.736c-0.427,0.492-0.396,1.03,0.066,1.551
			c0.02,0.092,0.04,0.183,0.061,0.274c0.024-0.018,0.064-0.031,0.069-0.054c0.023-0.102-0.018-0.184-0.103-0.243
			c0.026-0.255-0.041-0.537,0.211-0.727c-0.018,1.155,0.4,1.487,1.376,1.093c0.492-0.225,0.757-0.593,0.629-1.14
			c-0.124-0.531-0.486-0.749-1.03-0.646C174.26,309.774,174.215,309.731,174.17,309.689z M175.088,307.641
			c-0.765-0.603-2.481-0.447-3.275,0.299c-0.172,0.162-0.411,0.333-0.147,0.596c0.248,0.247,0.402,0.052,0.595-0.125
			c0.658-0.6,1.431-0.863,2.329-0.72C174.752,307.716,174.938,307.824,175.088,307.641z"/>
		<path fill-rule="evenodd" clip-rule="evenodd" fill="#FCFCFC" d="M185.39,309.492c0.984,0.023,1.927,0.152,2.602,1.075
			c0.356-0.65,0.295-1.357,0.494-1.996c0.107-0.346,0.314-0.587,0.636-0.627c0.466-0.056,0.973-0.191,1.391,0.154
			c0.211,0.177,0.172,0.465,0.095,0.684c-0.226,0.641,0.058,0.719,0.621,0.716c0.793-0.005,1.575,0.126,2.124,1.076
			c0.083-1.076,0.726-1.126,1.439-1.09c0.603,0.031,1.208,0.011,1.81,0.044c0.92,0.05,1.724,0.351,2.063,1.295
			c0.364,1.013,0.112,1.951-0.548,2.77c-0.536,0.665-1.296,0.929-2.122,1.019c-0.279,0.032-0.564,0.07-0.843,0.048
			c-0.387-0.028-0.512,0.128-0.571,0.501c-0.167,1.035-0.846,1.413-1.84,1.041c-0.545-0.206-0.437-0.697-0.32-1.075
			c0.128-0.416,0.05-0.515-0.354-0.444c-0.117,0.02-0.241,0.002-0.362,0.002c-1.204,0.004-1.064-0.126-1.021-1.274
			c0.018-0.478,0.243-0.944,0.319-1.424c0.037-0.236,0.186-0.609-0.271-0.655c-0.34-0.035-0.667-0.078-0.72,0.46
			c-0.069,0.719-0.231,1.43-0.38,2.137c-0.136,0.647-0.516,0.832-1.412,0.774c-0.608-0.04-0.805-0.376-0.697-1.049
			c-0.665,0.544-1.3,0.93-2.072,1.011c-0.1,0.011-0.204,0.056-0.297,0.038c-0.797-0.136-1.282,0.089-1.323,0.997
			c-0.016,0.353-0.316,0.512-0.696,0.533c-1.476,0.08-1.585-0.041-1.286-1.491c0.057-0.273,0.076-0.555,0.114-0.831
			c0.133-0.145,0.305-0.178,0.542-0.173c-0.107,0.518-0.217,1.023-0.314,1.531c-0.05,0.26-0.105,0.6,0.304,0.545
			c0.307-0.042,0.801,0.325,0.909-0.33c0.052-0.308,0.16-0.607,0.236-0.912c0.081-0.32,0.331-0.299,0.576-0.296
			c0.543,0.008,1.083,0.024,1.619-0.112c1.315-0.338,2.163-1.688,1.883-3.013c-0.159-0.751-0.782-1.145-1.989-1.226
			C185.419,309.902,185.182,309.889,185.39,309.492z M193.364,315.831c0.38,0.031,0.706,0.026,0.773-0.459
			c0.179-1.283,0.146-1.089,1.367-1.105c0.141-0.001,0.283,0,0.423-0.013c1.209-0.109,2.094-0.84,2.398-1.973
			c0.354-1.318-0.354-2.312-1.713-2.369c-0.704-0.028-1.412,0.017-2.115-0.017c-0.459-0.022-0.64,0.164-0.72,0.6
			c-0.293,1.584-0.604,3.164-0.936,4.738C192.736,315.737,192.883,315.922,193.364,315.831z M190.472,310.869
			c1.083,0.002,1.182,0.123,0.989,1.098c-0.106,0.533-0.242,1.062-0.311,1.6c-0.03,0.234-0.332,0.66,0.216,0.688
			c0.412,0.02,0.968,0.233,1.063-0.51c0.069-0.537,0.192-1.069,0.298-1.604c0.361-1.811,0.016-2.228-1.858-2.229
			c-0.91,0-0.904,0-0.732-0.889c0.04-0.203,0.189-0.437-0.013-0.626c-0.307-0.284-1.135,0.017-1.22,0.444
			c-0.319,1.6-0.636,3.198-0.944,4.8c-0.043,0.224-0.262,0.521,0.175,0.623c0.576,0.134,0.964-0.023,1.056-0.446
			c0.159-0.728,0.352-1.452,0.442-2.188C189.708,311.018,189.941,310.737,190.472,310.869z"/>
		<path fill-rule="evenodd" clip-rule="evenodd" fill="#FCFCFC" d="M180.842,303.074c0.016,0.327,0.032,0.618-0.37,0.781
			c-1.218,0.492-2.268,1.268-3.327,2.029c-0.362,0.261-0.754,0.689-1.255,0.157c-0.066-0.07-0.274-0.031-0.41-0.006
			c-1.541,0.284-3,0.736-4.103,1.956c-0.655,0.723-1.023,1.585-1.152,2.521c-0.103,0.75-0.156,1.515-0.162,2.281
			c-0.016,2.332-0.017,4.668-0.145,6.997c-0.076,1.383-0.018,2.767-0.205,4.146c0-5.165,0-10.333,0-15.498
			c0.041-0.106,0.082-0.209,0.123-0.316c0.104-0.058,0.157-0.141,0.122-0.264l0,0.001c0.115-0.041,0.158-0.121,0.128-0.239
			l-0.002,0.003c0.079-0.015,0.114-0.059,0.096-0.14l0.002-0.003c0.125-0.025,0.167-0.103,0.145-0.223h-0.001
			c0.081-0.004,0.12-0.045,0.111-0.127v-0.003c0.079-0.005,0.117-0.046,0.109-0.127l0.004-0.005c0.083,0.003,0.123-0.034,0.111-0.12
			l0.008-0.007c0.085,0.011,0.123-0.027,0.114-0.113l0.007-0.008c0.085,0.011,0.124-0.028,0.116-0.112l0.006-0.007
			c0.083,0.013,0.125-0.024,0.126-0.107l0.003-0.001c0.083,0.01,0.126-0.027,0.127-0.112l0,0c0.189,0.02,0.345-0.012,0.356-0.247
			l0.002-0.001c0.188,0.025,0.344,0.001,0.372-0.23h-0.002c0.117,0.03,0.202-0.004,0.241-0.124l0,0.001
			c0.124,0.034,0.21-0.014,0.268-0.123c0.02-0.008,0.039-0.018,0.058-0.029c0.116,0.033,0.217,0.026,0.271-0.104h0.001
			c0.597-0.049,1.145-0.272,1.695-0.481l-0.002,0.001c0.257,0.029,0.511,0.042,0.737-0.12c0.51-0.026,1.021-0.219,1.532,0.042
			c0.176,0.09,0.338-0.084,0.493-0.167c0.954-0.501,1.904-1.012,2.857-1.517C180.294,303.178,180.552,303.068,180.842,303.074z"/>
		<path fill-rule="evenodd" clip-rule="evenodd" fill="#778BC7" d="M178.185,322.253c-0.009-0.327-0.142-0.623-0.271-0.912
			c-0.281-0.625-0.483-0.675-1.092-0.225c0-1.427-0.001-2.801,0.002-4.176c0-0.229,0.112-0.216,0.316-0.184
			c1.63,0.249,1.631,0.24,1.631,1.876c0,1.414,0,2.829,0,4.292c-0.337-0.178-0.183-0.662-0.591-0.676L178.185,322.253z"/>
		<path fill-rule="evenodd" clip-rule="evenodd" fill="#778BC7" d="M181.809,322.37c0.483,0.754,0.112,1.386-0.26,2.041
			c-0.275,0.486-0.283,1.044-0.201,1.589c0.055,0.364-0.088,0.425-0.399,0.344c-0.413-0.109-0.839-0.488-0.836-1.082
			c0.005-0.967,0.274-1.826,0.733-2.649l-0.004,0.005c0.254-0.189,0.471-0.469,0.852-0.364l-0.006-0.005
			c-0.016,0.099,0.02,0.149,0.126,0.126L181.809,322.37z"/>
		<path fill-rule="evenodd" clip-rule="evenodd" fill="#778BC7" d="M193.297,322.132c0.435-0.092,0.643,0.173,0.839,0.502
			c0.2,0.338,0.164,0.601-0.057,0.93c-0.516,0.769-0.7,1.613-0.378,2.521c-0.028,0.028-0.057,0.059-0.085,0.088
			c-0.963-0.084-1.229-0.592-1.148-1.451c0.071-0.77,0.244-1.509,0.677-2.168c0.083-0.126,0.237-0.234,0.156-0.425L193.297,322.132z
			"/>
		<path fill-rule="evenodd" clip-rule="evenodd" fill="#778BC7" d="M182.902,326.483c-1.101,0.169-1.564-0.372-1.271-1.489
			c0.102-0.391,0.223-0.773,0.449-1.111c0.271-0.401,0.494-0.402,0.677,0.038c0.292,0.706,0.545,1.432,0.263,2.214
			c-0.024,0.068-0.001,0.154-0.001,0.232l0.006-0.007c-0.106-0.021-0.148,0.022-0.127,0.128L182.902,326.483z"/>
		<path fill-rule="evenodd" clip-rule="evenodd" fill="#778BC7" d="M195.358,325.212c0,0.195,0.026,0.38-0.005,0.555
			c-0.06,0.331-0.292,0.552-0.609,0.577c-0.319,0.025-0.625-0.058-0.749-0.446c-0.27-0.84-0.015-1.582,0.406-2.284
			c0.197-0.33,0.427-0.228,0.59,0.061C195.262,324.155,195.41,324.669,195.358,325.212z"/>
		<path fill-rule="evenodd" clip-rule="evenodd" fill="#778BC7" d="M191.225,325.216c-0.583-0.188-1.255-0.226-1.469-0.874
			c-0.228-0.688,0.077-1.329,0.391-1.938c0.093-0.182,0.227-0.146,0.317,0.006c0.081,0.136,0.133,0.289,0.197,0.435
			C190.992,323.595,190.733,324.478,191.225,325.216z"/>
		<path fill-rule="evenodd" clip-rule="evenodd" fill="#778BC7" d="M178.18,322.249c0.202,0.676,0.607,1.313,0.397,2.07
			c-0.014,0.05-0.001,0.153,0.022,0.161c0.359,0.112,0.242,0.489,0.156,0.569c-0.202,0.189-0.341-0.124-0.513-0.187
			c-0.396-0.144-0.761-0.266-0.792-0.756c-0.04-0.635,0.108-1.229,0.47-1.758c0.043-0.063,0.175-0.065,0.265-0.097L178.18,322.249z"
			/>
		<path fill-rule="evenodd" clip-rule="evenodd" fill="#778BC7" d="M175.906,304.17c1.057-1.14,2.217-1.542,3.162-1.071
			C178.055,303.669,177.22,304.496,175.906,304.17z"/>
		<path fill-rule="evenodd" clip-rule="evenodd" fill="#FCFCFC" d="M185.083,311.243c-0.004-0.286,0.075-0.469,0.421-0.403
			c0.433,0.079,0.844,0.178,0.907,0.71c0.105,0.89-0.465,1.609-1.362,1.729c-0.138,0.018-0.279,0.037-0.419,0.032
			c-0.227-0.004-0.539,0.138-0.646-0.14c-0.092-0.243,0.225-0.332,0.365-0.486c0.367,0.484,0.782,0.162,1.122,0.007
			c0.434-0.197,0.541-0.662,0.462-1.089C185.849,311.137,185.399,311.299,185.083,311.243z"/>
		<path fill-rule="evenodd" clip-rule="evenodd" fill="#778BC7" d="M191.012,322.844c-0.28-0.515-0.62-0.978-0.797-1.532
			c-0.15-0.473-0.466-0.715-0.958-0.327c-0.08-0.518-0.08-0.518,0.356-0.555c1.399-0.125,1.399-0.125,1.399,1.29
			C191.012,322.096,191.012,322.47,191.012,322.844z"/>
		<path fill-rule="evenodd" clip-rule="evenodd" fill="#778BC7" d="M201.232,307.331c0.899-0.462,1.83-0.554,2.789-0.356
			c0.15,0.031,0.354,0.065,0.352,0.263c-0.002,0.194-0.206,0.222-0.354,0.272c-0.719,0.254-1.432,0.009-2.146-0.039
			C201.657,307.455,201.446,307.379,201.232,307.331z"/>
		<path fill-rule="evenodd" clip-rule="evenodd" fill="#778BC7" d="M185.083,311.243c0.315,0.056,0.766-0.106,0.851,0.36
			c0.079,0.427-0.029,0.892-0.462,1.089c-0.34,0.155-0.755,0.478-1.122-0.007C184.683,312.25,184.886,311.749,185.083,311.243z"/>
		<path fill-rule="evenodd" clip-rule="evenodd" fill="#778BC7" d="M177.041,323.749c-0.304-0.87-0.351-1.575-0.082-2.271
			c0.082-0.215,0.219-0.596,0.525-0.394c0.254,0.168,0.532,0.565,0.274,0.875C177.354,322.446,177.197,323.004,177.041,323.749z"/>
		<path fill-rule="evenodd" clip-rule="evenodd" fill="#778BC7" d="M189.297,323.655c-0.127-0.73-0.224-1.444-0.021-2.156
			c0.063-0.224,0.207-0.541,0.473-0.402c0.295,0.151,0.548,0.577,0.327,0.85C189.66,322.458,189.448,323.021,189.297,323.655z"/>
		<path fill-rule="evenodd" clip-rule="evenodd" fill="#778BC7" d="M192.253,325.418c-0.815-0.734-0.626-2.022,0.315-2.563
			C192.367,323.688,192.12,324.477,192.253,325.418z"/>
		<path fill-rule="evenodd" clip-rule="evenodd" fill="#778BC7" d="M179.995,322.979c0.157-0.004,0.284-0.008,0.191,0.226
			c-0.297,0.744-0.471,1.515-0.432,2.406c-0.698-1.02-0.378-1.846,0.245-2.636L179.995,322.979z"/>
		<path fill-rule="evenodd" clip-rule="evenodd" fill="#778BC7" d="M198.566,307.165c0.51,0,1.021,0,1.531,0.002
			c0.088,0,0.16,0.047,0.166,0.136c0.007,0.091-0.059,0.152-0.146,0.149c-0.524-0.024-1.063,0.113-1.569-0.087
			C198.554,307.297,198.56,307.232,198.566,307.165z"/>
		<path fill-rule="evenodd" clip-rule="evenodd" fill="#778BC7" d="M201.861,308.123c0.497-0.049,0.902,0,1.306,0.075
			c0.127,0.024,0.256,0.082,0.257,0.212c0.002,0.206-0.185,0.174-0.315,0.181C202.661,308.611,202.253,308.516,201.861,308.123z"/>
		<path fill-rule="evenodd" clip-rule="evenodd" fill="#778BC7" d="M202.211,306.239c0.312-0.167,0.596-0.421,0.968-0.218
			c0.031,0.018,0.052,0.136,0.033,0.152C202.902,306.424,202.548,306.266,202.211,306.239z"/>
		<path fill-rule="evenodd" clip-rule="evenodd" fill="#778BC7" d="M174.429,305.069c-0.551,0.209-1.098,0.433-1.695,0.481
			C173.25,305.217,173.824,305.087,174.429,305.069z"/>
		<path fill-rule="evenodd" clip-rule="evenodd" fill="#778BC7" d="M175.164,304.95c-0.226,0.162-0.48,0.149-0.737,0.12
			C174.65,304.893,174.909,304.934,175.164,304.95z"/>
		<path fill-rule="evenodd" clip-rule="evenodd" fill="#778BC7" d="M171.525,306.162c-0.011,0.235-0.167,0.267-0.356,0.247
			C171.224,306.236,171.342,306.153,171.525,306.162z"/>
		<path fill-rule="evenodd" clip-rule="evenodd" fill="#778BC7" d="M171.899,305.931c-0.028,0.231-0.184,0.256-0.372,0.23
			C171.59,305.985,171.717,305.915,171.899,305.931z"/>
		<path fill-rule="evenodd" clip-rule="evenodd" fill="#778BC7" d="M172.138,305.807c-0.04,0.12-0.124,0.154-0.241,0.124
			C171.934,305.806,172.024,305.783,172.138,305.807z"/>
		<path fill-rule="evenodd" clip-rule="evenodd" fill="#778BC7" d="M172.405,305.685c-0.058,0.109-0.144,0.157-0.268,0.123
			C172.185,305.676,172.287,305.664,172.405,305.685z"/>
		<path fill-rule="evenodd" clip-rule="evenodd" fill="#778BC7" d="M172.733,305.551c-0.054,0.131-0.155,0.138-0.271,0.104
			C172.526,305.552,172.618,305.521,172.733,305.551z"/>
		<path fill-rule="evenodd" clip-rule="evenodd" fill="#778BC7" d="M169.958,307.859c0.035,0.123-0.019,0.206-0.122,0.264
			C169.818,308.008,169.834,307.909,169.958,307.859z"/>
		<path fill-rule="evenodd" clip-rule="evenodd" fill="#778BC7" d="M170.086,307.621c0.03,0.118-0.014,0.198-0.128,0.239
			C169.938,307.748,169.969,307.662,170.086,307.621z"/>
		<path fill-rule="evenodd" clip-rule="evenodd" fill="#778BC7" d="M170.328,307.259c0.023,0.12-0.02,0.197-0.145,0.223
			C170.173,307.37,170.21,307.287,170.328,307.259z"/>
		<path fill-rule="evenodd" clip-rule="evenodd" fill="#778BC7" d="M170.547,307.002c0.008,0.081-0.03,0.122-0.109,0.127
			C170.432,307.051,170.466,307.006,170.547,307.002z"/>
		<path fill-rule="evenodd" clip-rule="evenodd" fill="#778BC7" d="M170.662,306.877c0.012,0.086-0.028,0.123-0.111,0.12
			C170.548,306.922,170.583,306.881,170.662,306.877z"/>
		<path fill-rule="evenodd" clip-rule="evenodd" fill="#778BC7" d="M170.783,306.757c0.009,0.086-0.029,0.124-0.114,0.113
			C170.668,306.794,170.707,306.756,170.783,306.757z"/>
		<path fill-rule="evenodd" clip-rule="evenodd" fill="#778BC7" d="M170.906,306.637c0.008,0.084-0.031,0.123-0.116,0.112
			C170.791,306.672,170.83,306.635,170.906,306.637z"/>
		<path fill-rule="evenodd" clip-rule="evenodd" fill="#778BC7" d="M171.039,306.522c-0.001,0.083-0.043,0.12-0.126,0.107
			C170.917,306.551,170.96,306.517,171.039,306.522z"/>
		<path fill-rule="evenodd" clip-rule="evenodd" fill="#778BC7" d="M171.169,306.409c-0.001,0.085-0.044,0.122-0.127,0.112
			C171.045,306.44,171.09,306.404,171.169,306.409z"/>
		<path fill-rule="evenodd" clip-rule="evenodd" fill="#778BC7" d="M170.181,307.484c0.018,0.081-0.018,0.125-0.096,0.14
			C170.076,307.549,170.102,307.498,170.181,307.484z"/>
		<path fill-rule="evenodd" clip-rule="evenodd" fill="#778BC7" d="M170.438,307.132c0.008,0.082-0.031,0.123-0.111,0.127
			C170.32,307.181,170.356,307.136,170.438,307.132z"/>
		<path fill-rule="evenodd" clip-rule="evenodd" fill="#778BC7" d="M193.701,326.084c0.016,0.03,0.052,0.072,0.042,0.089
			c-0.036,0.065-0.084,0.034-0.127-0.001C193.645,326.143,193.673,326.112,193.701,326.084z"/>
		<path fill-rule="evenodd" clip-rule="evenodd" fill="#3E3B59" d="M175.088,307.641c-0.15,0.184-0.336,0.075-0.498,0.05
			c-0.897-0.144-1.67,0.12-2.329,0.72c-0.193,0.177-0.347,0.372-0.595,0.125c-0.264-0.263-0.025-0.434,0.147-0.596
			C172.607,307.193,174.324,307.038,175.088,307.641z"/>
		<path fill-rule="evenodd" clip-rule="evenodd" fill="#3E3B59" d="M174.304,309.816c0.544-0.104,0.907,0.114,1.03,0.646
			c0.127,0.547-0.138,0.915-0.629,1.14c-0.226-0.275-0.973-0.243-0.542-0.912c0.001-0.001-0.064-0.041-0.093-0.066
			c-0.243-0.227-0.019-0.291,0.133-0.376c0.134-0.076,0.319-0.006,0.449-0.167C174.597,309.917,174.325,310.015,174.304,309.816z"/>
		<path fill-rule="evenodd" clip-rule="evenodd" fill="#3E3B59" d="M173.329,310.509c-0.251,0.189-0.185,0.472-0.211,0.727
			l-0.026,0.023c-0.462-0.521-0.494-1.06-0.066-1.552c0.444-0.512,1.026-0.708,1.707-0.736c-0.021,0.428-0.489,0.407-0.561,0.719
			c-0.111,0.11-0.224,0.221-0.336,0.332c-0.048,0.029-0.098,0.059-0.146,0.087l-0.025,0.02c-0.135,0.007-0.21,0.079-0.23,0.21
			l-0.03,0.042c-0.068,0.02-0.092,0.062-0.069,0.129H173.329z"/>
		<path fill-rule="evenodd" clip-rule="evenodd" fill="#FCFCFC" d="M173.834,310.021c0.113-0.111,0.225-0.222,0.336-0.332
			c0.045,0.042,0.089,0.085,0.134,0.127c0.021,0.198,0.292,0.101,0.347,0.264c-0.129,0.161-0.315,0.091-0.449,0.167
			c-0.152,0.085-0.376,0.149-0.133,0.376c0.029,0.025,0.094,0.065,0.093,0.066c-0.43,0.669,0.316,0.637,0.542,0.912
			c-0.976,0.395-1.394,0.063-1.376-1.093h0.004c0.08-0.012,0.108-0.054,0.069-0.129l0.03-0.042c0.161,0.022,0.221-0.065,0.23-0.21
			l0.025-0.02C173.767,310.13,173.813,310.096,173.834,310.021z"/>
		<path fill-rule="evenodd" clip-rule="evenodd" fill="#3E3B59" d="M181.694,322.253c-0.381-0.104-0.598,0.175-0.852,0.364
			C181,322.01,181.265,321.897,181.694,322.253z"/>
		<path fill-rule="evenodd" clip-rule="evenodd" fill="#3E3B59" d="M173.118,311.235c0.085,0.06,0.126,0.142,0.103,0.243
			c-0.005,0.022-0.045,0.036-0.069,0.054c-0.021-0.092-0.041-0.183-0.061-0.274C173.091,311.259,173.118,311.235,173.118,311.235z"
			/>
		<path fill-rule="evenodd" clip-rule="evenodd" fill="#3E3B59" d="M181.814,322.374c-0.106,0.023-0.142-0.027-0.126-0.126
			C181.729,322.29,181.771,322.333,181.814,322.374z"/>
		<path fill-rule="evenodd" clip-rule="evenodd" fill="#3E3B59" d="M182.896,326.488c-0.021-0.105,0.021-0.148,0.127-0.128
			C182.981,326.403,182.939,326.445,182.896,326.488z"/>
		<path fill-rule="evenodd" clip-rule="evenodd" fill="#3E3B59" d="M193.364,315.831c-0.481,0.091-0.627-0.094-0.522-0.598
			c0.332-1.574,0.643-3.154,0.936-4.738c0.08-0.436,0.26-0.622,0.72-0.6c0.704,0.033,1.412-0.012,2.115,0.017
			c1.359,0.058,2.066,1.051,1.713,2.369c-0.304,1.133-1.189,1.863-2.398,1.973c-0.141,0.013-0.282,0.012-0.423,0.013
			c-1.222,0.017-1.188-0.178-1.367,1.105C194.069,315.857,193.744,315.862,193.364,315.831z M195.417,312.893
			c0.672,0.009,1.204-0.434,1.215-1.017c0.01-0.525-0.328-0.618-0.765-0.608c-0.512,0.014-0.792,0.522-0.8,1.393
			C195.064,313.001,195.289,312.853,195.417,312.893z"/>
		<path fill-rule="evenodd" clip-rule="evenodd" fill="#3E3B59" d="M190.472,310.869c-0.53-0.132-0.764,0.148-0.839,0.761
			c-0.09,0.736-0.283,1.461-0.442,2.188c-0.092,0.423-0.48,0.58-1.056,0.446c-0.437-0.103-0.218-0.399-0.175-0.623
			c0.309-1.602,0.625-3.2,0.944-4.8c0.085-0.428,0.913-0.729,1.22-0.444c0.202,0.189,0.053,0.423,0.013,0.626
			c-0.172,0.889-0.178,0.889,0.732,0.889c1.875,0.001,2.22,0.418,1.858,2.229c-0.106,0.534-0.229,1.066-0.298,1.604
			c-0.095,0.743-0.652,0.529-1.063,0.51c-0.548-0.027-0.246-0.453-0.216-0.688c0.069-0.538,0.205-1.066,0.311-1.6
			C191.653,310.992,191.555,310.871,190.472,310.869z"/>
		<path fill-rule="evenodd" clip-rule="evenodd" fill="#778BC7" d="M173.663,310.128c-0.01,0.145-0.07,0.232-0.23,0.21
			C173.453,310.207,173.527,310.135,173.663,310.128z"/>
		<path fill-rule="evenodd" clip-rule="evenodd" fill="#778BC7" d="M173.834,310.021c-0.021,0.074-0.067,0.108-0.146,0.087
			C173.736,310.08,173.786,310.051,173.834,310.021z"/>
		<path fill-rule="evenodd" clip-rule="evenodd" fill="#778BC7" d="M173.402,310.38c0.039,0.075,0.011,0.117-0.069,0.129
			C173.31,310.441,173.334,310.399,173.402,310.38z"/>
		<path fill-rule="evenodd" clip-rule="evenodd" fill="#FCFCFC" d="M195.417,312.893c-0.129-0.04-0.353,0.108-0.35-0.232
			c0.008-0.87,0.288-1.379,0.8-1.393c0.438-0.01,0.775,0.083,0.765,0.608C196.621,312.459,196.09,312.901,195.417,312.893z"/>
	</g>
</g>
<g id="Layer_6">
	<rect x="120.518" y="375" fill="none" width="164.981" height="66.282"/>
	<text transform="matrix(1 0 0 1 158.0781 397.1953)"><tspan x="0" y="0" fill="#F2F2F2" font-family="'Arial-BoldMT'" font-size="31">Portfolio </tspan><tspan x="58.458" y="28" fill="#F2F2F2" font-family="'Arial-BoldMT'" font-size="31">2020</tspan></text>
</g>
</svg>
